<?xml version="1.0" encoding="UTF-8" standalone="no"?>
<!-- Created with Inkscape (http://www.inkscape.org/) -->

<svg
   xmlns:dc="http://purl.org/dc/elements/1.1/"
   xmlns:cc="http://creativecommons.org/ns#"
   xmlns:rdf="http://www.w3.org/1999/02/22-rdf-syntax-ns#"
   xmlns:svg="http://www.w3.org/2000/svg"
   xmlns="http://www.w3.org/2000/svg"
   xmlns:sodipodi="http://sodipodi.sourceforge.net/DTD/sodipodi-0.dtd"
   xmlns:inkscape="http://www.inkscape.org/namespaces/inkscape"
   width="138.65472mm"
   height="109.3062mm"
   viewBox="0 0 138.65472 109.3062"
   version="1.1"
   id="svg1087"
   inkscape:version="0.92.5 (2060ec1f9f, 2020-04-08)"
   sodipodi:docname="BaseballDebugging.svg">
  <defs
     id="defs1081" />
  <sodipodi:namedview
     id="base"
     pagecolor="#ffffff"
     bordercolor="#666666"
     borderopacity="1.0"
     inkscape:pageopacity="0.0"
     inkscape:pageshadow="2"
     inkscape:zoom="1.4"
     inkscape:cx="210.28542"
     inkscape:cy="319.55611"
     inkscape:document-units="mm"
     inkscape:current-layer="layer1"
     showgrid="false"
     fit-margin-top="0"
     fit-margin-left="0"
     fit-margin-right="0"
     fit-margin-bottom="0"
     inkscape:window-width="1920"
     inkscape:window-height="1043"
     inkscape:window-x="0"
     inkscape:window-y="0"
     inkscape:window-maximized="1"
     showguides="false"
     inkscape:lockguides="true" />
  <metadata
     id="metadata1084">
    <rdf:RDF>
      <cc:Work
         rdf:about="">
        <dc:format>image/svg+xml</dc:format>
        <dc:type
           rdf:resource="http://purl.org/dc/dcmitype/StillImage" />
        <dc:title />
      </cc:Work>
    </rdf:RDF>
  </metadata>
  <g
     inkscape:label="Layer 1"
     inkscape:groupmode="layer"
     id="layer1"
     transform="translate(-30.458353,-114.59096)">
    <ellipse
       style="fill:none;fill-opacity:1;stroke:#000000;stroke-width:0.27491093;stroke-miterlimit:4;stroke-dasharray:none;stroke-dashoffset:0;stroke-opacity:1;paint-order:stroke markers fill"
       id="path817"
       cx="100.09872"
       cy="214.17239"
       rx="10.445878"
       ry="9.5873022" />
    <path
       style="fill:none;stroke:#000000;stroke-width:0.26458332px;stroke-linecap:butt;stroke-linejoin:miter;stroke-opacity:1"
       d="m 71.989401,176.17396 23.54464,-23.32662"
       id="path821"
       inkscape:connector-curvature="0" />
    <path
       style="fill:none;stroke:#000000;stroke-width:0.26458332px;stroke-linecap:butt;stroke-linejoin:miter;stroke-opacity:1"
       d="m 71.989401,176.17396 c 0.97036,1.13623 1.56312,2.57901 1.44808,4.08602 0.0435,1.7982 -0.54888,3.69938 -1.94067,4.90427"
       id="path842"
       inkscape:connector-curvature="0" />
    <path
       style="fill:none;stroke:#000000;stroke-width:0.26458332px;stroke-linecap:butt;stroke-linejoin:miter;stroke-opacity:1"
       d="m 104.52433,153.33993 c -1.13623,0.97036 -2.579,1.56312 -4.08602,1.44807 -1.798199,0.0435 -3.699379,-0.54887 -4.904269,-1.94066"
       id="path842-3"
       inkscape:connector-curvature="0" />
    <path
       style="fill:none;stroke:#000000;stroke-width:0.26458332px;stroke-linecap:butt;stroke-linejoin:miter;stroke-opacity:1"
       d="m 127.9622,185.42723 c -0.97036,-1.13623 -1.56312,-2.579 -1.44808,-4.08602 -0.0435,-1.79819 0.54888,-3.69937 1.94067,-4.90427"
       id="path842-6"
       inkscape:connector-curvature="0" />
    <path
       style="fill:none;stroke:#000000;stroke-width:0.26458332px;stroke-linecap:butt;stroke-linejoin:miter;stroke-opacity:1"
       d="M 128.45479,176.43694 104.52433,153.33993"
       id="path873"
       inkscape:connector-curvature="0" />
    <path
       style="fill:none;stroke:#000000;stroke-width:0.26458332px;stroke-linecap:butt;stroke-linejoin:miter;stroke-opacity:1"
       d="m 127.9622,185.42723 20.53424,-20.53415"
       id="path875"
       inkscape:connector-curvature="0" />
    <path
       style="fill:none;stroke:#000000;stroke-width:0.26458332px;stroke-linecap:butt;stroke-linejoin:miter;stroke-opacity:1"
       d="m 71.496811,185.16425 c -6.65429,-6.70567 -13.30859,-13.41134 -19.96288,-20.11702 4.97231,-5.8379 10.5093,-11.41747 17.33515,-14.98197 8.69023,-6.20139 19.69163,-8.25207 30.145,-8.7522 10.312589,-0.44033 21.165549,0.70835 30.063539,6.33509 7.41711,2.97258 13.20621,8.69208 17.32995,15.41462 l 0.96679,0.99359 1.12208,0.83672"
       id="path877"
       inkscape:connector-curvature="0" />
    <circle
       style="fill:none;fill-opacity:1;stroke:#000000;stroke-width:0.2747879;stroke-miterlimit:4;stroke-dasharray:none;stroke-dashoffset:0;stroke-opacity:1;paint-order:stroke markers fill"
       id="path889"
       cx="99.922745"
       cy="189.22574"
       r="4.4928141" />
    <path
       style="fill:none;stroke:#000000;stroke-width:0.26458332px;stroke-linecap:butt;stroke-linejoin:miter;stroke-opacity:1"
       d="m 109.26841,209.31085 59.7336,-60.16961"
       id="path891"
       inkscape:connector-curvature="0" />
    <path
       style="fill:none;stroke:#000000;stroke-width:0.26458332px;stroke-linecap:butt;stroke-linejoin:miter;stroke-opacity:1"
       d="M 90.955911,210.18288 30.568291,149.14124"
       id="path893"
       inkscape:connector-curvature="0" />
    <path
       style="fill:none;stroke:#000000;stroke-width:0.26458332px;stroke-linecap:butt;stroke-linejoin:miter;stroke-opacity:1"
       d="m 169.00201,149.14124 c -30.01789,-46.3846 -108.060989,-45.37805 -138.433719,0"
       id="path895"
       inkscape:connector-curvature="0" />
    <path
       style="fill:#cba982;fill-opacity:1;stroke:#000000;stroke-width:0.21834917;stroke-miterlimit:4;stroke-dasharray:none;stroke-dashoffset:0;stroke-opacity:1;paint-order:stroke markers fill"
       d="m 97.436131,223.2107 c -2.4466,-0.57677 -5.28461,-2.75933 -6.43288,-4.94717 -1.38137,-2.63198 -1.46204,-5.13529 -0.24669,-7.65523 1.74323,-3.61448 5.15538,-5.69179 9.349239,-5.69179 5.0937,0 9.18762,3.2197 10.05084,7.90459 0.81575,4.42722 -2.43702,9.02877 -7.29708,10.32286 -1.23803,0.32965 -4.155889,0.36555 -5.423429,0.0667 z"
       id="path915"
       inkscape:connector-curvature="0" />
    <path
       style="fill:#cba982;fill-opacity:1;stroke:#000000;stroke-width:0.21834917;stroke-miterlimit:4;stroke-dasharray:none;stroke-dashoffset:0;stroke-opacity:1;paint-order:stroke markers fill"
       d="m 61.646971,174.89928 -9.79105,-9.8581 1.28542,-1.48141 c 1.97708,-2.27854 6.55647,-6.79598 8.37742,-8.26408 2.02111,-1.62948 4.70165,-3.4859 6.43117,-4.45395 0.71942,-0.40267 2.02098,-1.19586 2.89237,-1.76266 5.36677,-3.49083 13.26756,-6.00505 22.28731,-7.09235 4.52061,-0.54495 14.713499,-0.54341 18.604839,0.003 5.36994,0.75375 10.12342,2.15755 13.98704,4.13065 1.19903,0.61233 3.11847,1.57391 4.26542,2.13683 2.49989,1.22696 4.64452,2.51936 6.41686,3.86695 3.03098,2.30459 6.58056,6.16576 8.88485,9.66479 0.67393,1.02334 1.5771,2.14481 2.00707,2.49215 l 0.78175,0.63154 -10.04082,10.02827 -10.04081,10.02827 -0.41637,-0.54502 c -1.26762,-1.65928 -1.09565,-4.88542 0.37433,-7.02239 l 0.778,-1.13101 -1.65817,-1.53695 c -0.91199,-0.84532 -6.27662,-6.00061 -11.9214,-11.45621 -5.64478,-5.4556 -10.40691,-9.95088 -10.5825,-9.98951 -0.1756,-0.0386 -0.58962,0.11804 -0.92005,0.34816 -1.96786,1.37052 -5.318169,1.19172 -7.284879,-0.38878 l -0.84667,-0.6804 -11.87653,11.71923 c -6.53209,6.44558 -11.87653,11.75096 -11.87653,11.78974 0,0.0388 0.31779,0.63311 0.70621,1.32074 0.62986,1.11505 0.70432,1.42702 0.68868,2.88528 -0.0127,1.18658 -0.15216,1.9447 -0.50837,2.76403 -0.95557,2.19793 -0.10513,2.8275 -11.00459,-8.1466 z"
       id="path917"
       inkscape:connector-curvature="0" />
    <path
       style="fill:#cba982;fill-opacity:1;stroke:#000000;stroke-width:0.21834917;stroke-miterlimit:4;stroke-dasharray:none;stroke-dashoffset:0;stroke-opacity:1;paint-order:stroke markers fill"
       d="m 99.124771,193.36773 c -2.1246,-0.4892 -3.37909,-2.02902 -3.37909,-4.14764 0,-2.60742 1.82457,-4.27107 4.497549,-4.10087 1.13178,0.0721 1.51715,0.20439 2.19802,0.7547 1.21328,0.98063 1.66152,1.87689 1.66019,3.31952 -10e-4,1.41999 -0.40883,2.33745 -1.41396,3.18321 -1.07207,0.90209 -2.37502,1.26455 -3.562709,0.99108 z"
       id="path919"
       inkscape:connector-curvature="0" />
    <path
       style="fill:#3b965c;fill-opacity:1;stroke:#000000;stroke-width:0.21834917;stroke-miterlimit:4;stroke-dasharray:none;stroke-dashoffset:0;stroke-opacity:1;paint-order:stroke markers fill"
       d="m 66.314221,184.93452 c -13.36884,-13.51313 -26.79671,-27.1043 -29.83971,-30.20261 l -5.53273,-5.6333 0.75981,-1.14435 c 1.72364,-2.59598 4.58721,-5.92674 8.10276,-9.4247 3.76303,-3.74419 6.92577,-6.3608 10.92312,-9.03697 23.425,-15.68268 55.863769,-18.95421 82.842219,-8.35482 12.19352,4.79062 22.94976,12.46017 30.54443,21.77918 2.40612,2.95241 4.50518,5.90207 4.40785,6.19404 -0.0396,0.11876 -13.40341,13.65564 -29.6974,30.08196 l -29.62542,29.86604 -0.60931,-0.81771 c -0.63772,-0.85583 -1.53139,-1.61454 -2.81589,-2.39064 -3.2177,-1.94416 -8.080839,-1.91329 -11.469849,0.0728 -1.01846,0.59686 -2.61468,2.05411 -3.26009,2.97627 l -0.42281,0.60411 z m 35.032529,8.75441 c 0.78627,-0.23349 1.35512,-0.60179 1.98507,-1.28521 1.78949,-1.94136 1.78842,-4.42707 -0.003,-6.37025 -2.91326,-3.16052 -8.063009,-1.12353 -8.063009,3.18933 0,2.25113 1.26993,3.90215 3.53029,4.58972 0.84243,0.25626 1.354949,0.23142 2.550399,-0.12359 z m 37.11942,-18.52157 c 5.6897,-5.69064 10.30014,-10.38273 10.24542,-10.42685 -0.0547,-0.0441 -0.47049,-0.35634 -0.92393,-0.69383 -0.45345,-0.33748 -1.41468,-1.496 -2.13607,-2.5745 -1.88376,-2.81624 -3.54509,-4.77973 -6.14228,-7.25942 -3.35878,-3.20681 -5.59944,-4.59688 -14.59457,-9.05424 -2.96104,-1.46729 -8.07718,-2.89705 -12.92762,-3.61276 -3.71929,-0.54881 -14.590869,-0.54975 -19.075519,-0.002 -8.44933,1.03265 -15.88063,3.28497 -21.07784,6.38842 -0.98139,0.58601 -2.50198,1.49154 -3.3791,2.01229 -5.98692,3.5544 -10.63556,7.51969 -15.95178,13.60687 l -1.27667,1.46182 9.95423,10.08674 c 5.47482,5.5477 10.05402,10.12177 10.17599,10.1646 0.38182,0.13406 1.22473,-0.83704 1.74192,-2.00687 0.38484,-0.87045 0.49914,-1.5399 0.50814,-2.97612 0.0103,-1.6545 -0.057,-1.97696 -0.62902,-3.00944 l -0.64061,-1.15637 1.83964,-1.80245 c 1.01181,-0.99135 6.22269,-6.14678 11.57974,-11.45651 l 9.74009,-9.65406 0.76887,0.58644 c 1.97523,1.50658 5.659529,1.63641 7.622129,0.26859 l 0.62044,-0.43242 2.21363,2.16873 c 1.2175,1.1928 5.10766,4.95207 8.64481,8.35393 3.53714,3.40187 7.82127,7.54965 9.52029,9.2173 l 3.08912,3.03209 -0.61805,0.97456 c -1.29787,2.04653 -1.43189,4.98494 -0.32049,7.02694 0.33371,0.61314 0.71417,1.11481 0.84547,1.11481 0.1313,0 4.89393,-4.65599 10.58362,-10.34663 z"
       id="path921"
       inkscape:connector-curvature="0" />
    <path
       style="fill:none;stroke:#ffffff;stroke-width:0.52916664;stroke-linecap:butt;stroke-linejoin:miter;stroke-miterlimit:4;stroke-dasharray:none;stroke-opacity:1"
       d="m 37.108471,150.66727 63.003689,63.22171 62.78569,-63.65771"
       id="path923"
       inkscape:connector-curvature="0" />
    <path
       style="fill:none;stroke:#ffffff;stroke-width:1.05833328;stroke-linecap:butt;stroke-linejoin:miter;stroke-miterlimit:4;stroke-dasharray:none;stroke-opacity:1"
       d="m 97.807251,190.09464 h 4.360119"
       id="path925"
       inkscape:connector-curvature="0" />
    <text
       xml:space="preserve"
       style="font-style:normal;font-weight:normal;font-size:4.23333311px;line-height:1.25;font-family:sans-serif;letter-spacing:0px;word-spacing:0px;fill:#000000;fill-opacity:1;stroke:none;stroke-width:0.26458332"
       x="86.15979"
       y="181.84212"
       id="text929"><tspan
         sodipodi:role="line"
         id="tspan927"
         x="86.15979"
         y="181.84212"
         style="stroke-width:0.26458332">Syntax Errors</tspan></text>
    <rect
       style="fill:#ffffff;fill-opacity:1;stroke:#ffffff;stroke-width:1.05833328;stroke-miterlimit:4;stroke-dasharray:none;stroke-dashoffset:0;stroke-opacity:1;paint-order:stroke markers fill"
       id="rect931"
       width="1.8530499"
       height="1.8530499"
       x="-79.721733"
       y="219.44865"
       transform="rotate(-45)" />
    <rect
       style="fill:#ffffff;fill-opacity:1;stroke:#ffffff;stroke-width:1.05833328;stroke-miterlimit:4;stroke-dasharray:none;stroke-dashoffset:0;stroke-opacity:1;paint-order:stroke markers fill"
       id="rect931-7"
       width="1.8530499"
       height="1.8530499"
       x="-34.244984"
       y="217.95909"
       transform="rotate(-45)" />
    <rect
       style="fill:#ffffff;fill-opacity:1;stroke:#ffffff;stroke-width:1.05833328;stroke-miterlimit:4;stroke-dasharray:none;stroke-dashoffset:0;stroke-opacity:1;paint-order:stroke markers fill"
       id="rect931-5"
       width="1.8530499"
       height="1.8530499"
       x="-36.283337"
       y="175.98213"
       transform="rotate(-45)" />
    <rect
       style="fill:#ffffff;fill-opacity:1;stroke:#ffffff;stroke-width:1.05833328;stroke-miterlimit:4;stroke-dasharray:none;stroke-dashoffset:0;stroke-opacity:1;paint-order:stroke markers fill"
       id="rect931-3"
       width="1.8530499"
       height="1.8530499"
       x="-78.449966"
       y="173.27342"
       transform="rotate(-45)" />
    <text
       xml:space="preserve"
       style="font-style:normal;font-weight:normal;font-size:4.23333311px;line-height:1.25;font-family:sans-serif;letter-spacing:0px;word-spacing:0px;fill:#000000;fill-opacity:1;stroke:none;stroke-width:0.26458332"
       x="-79.768692"
       y="168.71523"
       id="text962"
       transform="rotate(-45)"><tspan
         sodipodi:role="line"
         id="tspan960"
         x="-79.768692"
         y="168.71523"
         style="stroke-width:0.26458332">Compile Time Errors </tspan></text>
    <text
       xml:space="preserve"
       style="font-style:normal;font-weight:normal;font-size:4.23333311px;line-height:1.25;font-family:sans-serif;letter-spacing:0px;word-spacing:0px;fill:#000000;fill-opacity:1;stroke:none;stroke-width:0.26458332"
       x="83.543716"
       y="128.64868"
       id="text966"><tspan
         sodipodi:role="line"
         id="tspan964"
         x="83.543716"
         y="128.64868"
         style="stroke-width:0.26458332;fill:#000000;fill-opacity:1">Runtime Errors</tspan></text>
    <text
       xml:space="preserve"
       style="font-style:normal;font-weight:normal;font-size:4.23333311px;line-height:1.25;font-family:sans-serif;letter-spacing:0px;word-spacing:0px;fill:#000000;fill-opacity:1;stroke:none;stroke-width:0.26458332"
       x="184.67595"
       y="27.116547"
       id="text962-5"
       transform="rotate(45)"><tspan
         sodipodi:role="line"
         id="tspan960-6"
         x="184.67595"
         y="27.116547"
         style="stroke-width:0.26458332">Linker Errors</tspan></text>
    <path
       sodipodi:type="star"
       style="fill:#ffe800;fill-opacity:1;stroke:none;stroke-width:1.05833328;stroke-miterlimit:4;stroke-dasharray:none;stroke-dashoffset:0;stroke-opacity:1;paint-order:stroke markers fill"
       id="path851"
       sodipodi:sides="5"
       sodipodi:cx="77.138416"
       sodipodi:cy="127.8912"
       sodipodi:r1="4.7847967"
       sodipodi:r2="2.3923984"
       sodipodi:arg1="1.7294516"
       sodipodi:arg2="2.3577701"
       inkscape:flatsided="false"
       inkscape:rounded="0"
       inkscape:randomized="0"
       d="m 76.38246,132.6159 -0.938392,-3.03569 -3.032717,-0.94795 2.597133,-1.83055 -0.0356,-3.17722 2.543509,1.90436 3.010712,-1.01568 -1.025158,3.0075 1.896327,2.54949 -3.177091,-0.0456 z"
       inkscape:transform-center-x="-0.37797562"
       inkscape:transform-center-y="0.85383844" />
  </g>
</svg>
