<?xml version="1.0" encoding="utf-8" standalone="no"?>
<!DOCTYPE svg PUBLIC "-//W3C//DTD SVG 1.1//EN"
  "http://www.w3.org/Graphics/SVG/1.1/DTD/svg11.dtd">
<svg height="337.074375pt" version="1.1" viewBox="0 0 1170.165625 337.074375" width="1170.165625pt" xmlns="http://www.w3.org/2000/svg" xmlns:xlink="http://www.w3.org/1999/xlink">
 <metadata>
  <rdf:RDF xmlns:cc="http://creativecommons.org/ns#" xmlns:dc="http://purl.org/dc/elements/1.1/" xmlns:rdf="http://www.w3.org/1999/02/22-rdf-syntax-ns#">
   <cc:Work>
    <dc:type rdf:resource="http://purl.org/dc/dcmitype/StillImage"/>
    <dc:date>2022-04-19T22:32:37.147034</dc:date>
    <dc:format>image/svg+xml</dc:format>
    <dc:creator>
     <cc:Agent>
      <dc:title>Matplotlib v3.4.3, https://matplotlib.org/</dc:title>
     </cc:Agent>
    </dc:creator>
   </cc:Work>
  </rdf:RDF>
 </metadata>
 <defs>
  <style type="text/css">*{stroke-linecap:butt;stroke-linejoin:round;}</style>
 </defs>
 <g id="figure_1">
  <g id="patch_1">
   <path d="M 0 337.074375 
L 1170.165625 337.074375 
L 1170.165625 0 
L 0 0 
z
" style="fill:#ffffff;"/>
  </g>
  <g id="axes_1">
   <g id="patch_2">
    <path d="M 46.965625 299.518125 
L 289.574321 299.518125 
L 289.574321 22.318125 
L 46.965625 22.318125 
z
" style="fill:#ffffff;"/>
   </g>
   <g id="patch_3">
    <path clip-path="url(#pfa5a13f478)" d="M 57.993293 299.518125 
L 62.426526 299.518125 
L 62.426526 299.518125 
L 57.993293 299.518125 
z
" style="fill:#1f77b4;"/>
   </g>
   <g id="patch_4">
    <path clip-path="url(#pfa5a13f478)" d="M 63.534835 299.518125 
L 67.968068 299.518125 
L 67.968068 299.518125 
L 63.534835 299.518125 
z
" style="fill:#1f77b4;"/>
   </g>
   <g id="patch_5">
    <path clip-path="url(#pfa5a13f478)" d="M 69.076376 299.518125 
L 73.50961 299.518125 
L 73.50961 299.518125 
L 69.076376 299.518125 
z
" style="fill:#1f77b4;"/>
   </g>
   <g id="patch_6">
    <path clip-path="url(#pfa5a13f478)" d="M 74.617918 299.518125 
L 79.051151 299.518125 
L 79.051151 299.518125 
L 74.617918 299.518125 
z
" style="fill:#1f77b4;"/>
   </g>
   <g id="patch_7">
    <path clip-path="url(#pfa5a13f478)" d="M 80.15946 299.518125 
L 84.592693 299.518125 
L 84.592693 299.518125 
L 80.15946 299.518125 
z
" style="fill:#1f77b4;"/>
   </g>
   <g id="patch_8">
    <path clip-path="url(#pfa5a13f478)" d="M 85.701001 299.518125 
L 90.134235 299.518125 
L 90.134235 299.518125 
L 85.701001 299.518125 
z
" style="fill:#1f77b4;"/>
   </g>
   <g id="patch_9">
    <path clip-path="url(#pfa5a13f478)" d="M 91.242543 299.518125 
L 95.675777 299.518125 
L 95.675777 299.518125 
L 91.242543 299.518125 
z
" style="fill:#1f77b4;"/>
   </g>
   <g id="patch_10">
    <path clip-path="url(#pfa5a13f478)" d="M 96.784085 299.518125 
L 101.217318 299.518125 
L 101.217318 299.518125 
L 96.784085 299.518125 
z
" style="fill:#1f77b4;"/>
   </g>
   <g id="patch_11">
    <path clip-path="url(#pfa5a13f478)" d="M 102.325627 299.518125 
L 106.75886 299.518125 
L 106.75886 299.518125 
L 102.325627 299.518125 
z
" style="fill:#1f77b4;"/>
   </g>
   <g id="patch_12">
    <path clip-path="url(#pfa5a13f478)" d="M 107.867168 299.518125 
L 112.300402 299.518125 
L 112.300402 299.518125 
L 107.867168 299.518125 
z
" style="fill:#1f77b4;"/>
   </g>
   <g id="patch_13">
    <path clip-path="url(#pfa5a13f478)" d="M 113.40871 299.518125 
L 117.841943 299.518125 
L 117.841943 299.518125 
L 113.40871 299.518125 
z
" style="fill:#1f77b4;"/>
   </g>
   <g id="patch_14">
    <path clip-path="url(#pfa5a13f478)" d="M 118.950252 299.518125 
L 123.383485 299.518125 
L 123.383485 299.518125 
L 118.950252 299.518125 
z
" style="fill:#1f77b4;"/>
   </g>
   <g id="patch_15">
    <path clip-path="url(#pfa5a13f478)" d="M 124.491793 299.518125 
L 128.925027 299.518125 
L 128.925027 299.518125 
L 124.491793 299.518125 
z
" style="fill:#1f77b4;"/>
   </g>
   <g id="patch_16">
    <path clip-path="url(#pfa5a13f478)" d="M 130.033335 299.518125 
L 134.466568 299.518125 
L 134.466568 299.518125 
L 130.033335 299.518125 
z
" style="fill:#1f77b4;"/>
   </g>
   <g id="patch_17">
    <path clip-path="url(#pfa5a13f478)" d="M 135.574877 299.518125 
L 140.00811 299.518125 
L 140.00811 299.518125 
L 135.574877 299.518125 
z
" style="fill:#1f77b4;"/>
   </g>
   <g id="patch_18">
    <path clip-path="url(#pfa5a13f478)" d="M 141.116418 299.518125 
L 145.549652 299.518125 
L 145.549652 299.518125 
L 141.116418 299.518125 
z
" style="fill:#1f77b4;"/>
   </g>
   <g id="patch_19">
    <path clip-path="url(#pfa5a13f478)" d="M 146.65796 299.518125 
L 151.091194 299.518125 
L 151.091194 299.518125 
L 146.65796 299.518125 
z
" style="fill:#1f77b4;"/>
   </g>
   <g id="patch_20">
    <path clip-path="url(#pfa5a13f478)" d="M 152.199502 299.518125 
L 156.632735 299.518125 
L 156.632735 299.518125 
L 152.199502 299.518125 
z
" style="fill:#1f77b4;"/>
   </g>
   <g id="patch_21">
    <path clip-path="url(#pfa5a13f478)" d="M 157.741044 299.518125 
L 162.174277 299.518125 
L 162.174277 299.518125 
L 157.741044 299.518125 
z
" style="fill:#1f77b4;"/>
   </g>
   <g id="patch_22">
    <path clip-path="url(#pfa5a13f478)" d="M 163.282585 299.518125 
L 167.715819 299.518125 
L 167.715819 299.518125 
L 163.282585 299.518125 
z
" style="fill:#1f77b4;"/>
   </g>
   <g id="patch_23">
    <path clip-path="url(#pfa5a13f478)" d="M 168.824127 299.518125 
L 173.25736 299.518125 
L 173.25736 293.974125 
L 168.824127 293.974125 
z
" style="fill:#1f77b4;"/>
   </g>
   <g id="patch_24">
    <path clip-path="url(#pfa5a13f478)" d="M 174.365669 299.518125 
L 178.798902 299.518125 
L 178.798902 299.518125 
L 174.365669 299.518125 
z
" style="fill:#1f77b4;"/>
   </g>
   <g id="patch_25">
    <path clip-path="url(#pfa5a13f478)" d="M 179.90721 299.518125 
L 184.340444 299.518125 
L 184.340444 299.518125 
L 179.90721 299.518125 
z
" style="fill:#1f77b4;"/>
   </g>
   <g id="patch_26">
    <path clip-path="url(#pfa5a13f478)" d="M 185.448752 299.518125 
L 189.881985 299.518125 
L 189.881985 299.518125 
L 185.448752 299.518125 
z
" style="fill:#1f77b4;"/>
   </g>
   <g id="patch_27">
    <path clip-path="url(#pfa5a13f478)" d="M 190.990294 299.518125 
L 195.423527 299.518125 
L 195.423527 299.518125 
L 190.990294 299.518125 
z
" style="fill:#1f77b4;"/>
   </g>
   <g id="patch_28">
    <path clip-path="url(#pfa5a13f478)" d="M 196.531835 299.518125 
L 200.965069 299.518125 
L 200.965069 299.518125 
L 196.531835 299.518125 
z
" style="fill:#1f77b4;"/>
   </g>
   <g id="patch_29">
    <path clip-path="url(#pfa5a13f478)" d="M 202.073377 299.518125 
L 206.506611 299.518125 
L 206.506611 299.518125 
L 202.073377 299.518125 
z
" style="fill:#1f77b4;"/>
   </g>
   <g id="patch_30">
    <path clip-path="url(#pfa5a13f478)" d="M 207.614919 299.518125 
L 212.048152 299.518125 
L 212.048152 299.518125 
L 207.614919 299.518125 
z
" style="fill:#1f77b4;"/>
   </g>
   <g id="patch_31">
    <path clip-path="url(#pfa5a13f478)" d="M 213.156461 299.518125 
L 217.589694 299.518125 
L 217.589694 299.518125 
L 213.156461 299.518125 
z
" style="fill:#1f77b4;"/>
   </g>
   <g id="patch_32">
    <path clip-path="url(#pfa5a13f478)" d="M 218.698002 299.518125 
L 223.131236 299.518125 
L 223.131236 299.518125 
L 218.698002 299.518125 
z
" style="fill:#1f77b4;"/>
   </g>
   <g id="patch_33">
    <path clip-path="url(#pfa5a13f478)" d="M 224.239544 299.518125 
L 228.672777 299.518125 
L 228.672777 299.518125 
L 224.239544 299.518125 
z
" style="fill:#1f77b4;"/>
   </g>
   <g id="patch_34">
    <path clip-path="url(#pfa5a13f478)" d="M 229.781086 299.518125 
L 234.214319 299.518125 
L 234.214319 299.518125 
L 229.781086 299.518125 
z
" style="fill:#1f77b4;"/>
   </g>
   <g id="patch_35">
    <path clip-path="url(#pfa5a13f478)" d="M 235.322627 299.518125 
L 239.755861 299.518125 
L 239.755861 299.518125 
L 235.322627 299.518125 
z
" style="fill:#1f77b4;"/>
   </g>
   <g id="patch_36">
    <path clip-path="url(#pfa5a13f478)" d="M 240.864169 299.518125 
L 245.297402 299.518125 
L 245.297402 299.518125 
L 240.864169 299.518125 
z
" style="fill:#1f77b4;"/>
   </g>
   <g id="patch_37">
    <path clip-path="url(#pfa5a13f478)" d="M 246.405711 299.518125 
L 250.838944 299.518125 
L 250.838944 299.518125 
L 246.405711 299.518125 
z
" style="fill:#1f77b4;"/>
   </g>
   <g id="patch_38">
    <path clip-path="url(#pfa5a13f478)" d="M 251.947253 299.518125 
L 256.380486 299.518125 
L 256.380486 299.518125 
L 251.947253 299.518125 
z
" style="fill:#1f77b4;"/>
   </g>
   <g id="patch_39">
    <path clip-path="url(#pfa5a13f478)" d="M 257.488794 299.518125 
L 261.922028 299.518125 
L 261.922028 299.518125 
L 257.488794 299.518125 
z
" style="fill:#1f77b4;"/>
   </g>
   <g id="patch_40">
    <path clip-path="url(#pfa5a13f478)" d="M 263.030336 299.518125 
L 267.463569 299.518125 
L 267.463569 299.518125 
L 263.030336 299.518125 
z
" style="fill:#1f77b4;"/>
   </g>
   <g id="patch_41">
    <path clip-path="url(#pfa5a13f478)" d="M 268.571878 299.518125 
L 273.005111 299.518125 
L 273.005111 299.518125 
L 268.571878 299.518125 
z
" style="fill:#1f77b4;"/>
   </g>
   <g id="patch_42">
    <path clip-path="url(#pfa5a13f478)" d="M 274.113419 299.518125 
L 278.546653 299.518125 
L 278.546653 299.518125 
L 274.113419 299.518125 
z
" style="fill:#1f77b4;"/>
   </g>
   <g id="matplotlib.axis_1">
    <g id="xtick_1">
     <g id="line2d_1">
      <defs>
       <path d="M 0 0 
L 0 3.5 
" id="md55ab54a9f" style="stroke:#000000;stroke-width:0.8;"/>
      </defs>
      <g>
       <use style="stroke:#000000;stroke-width:0.8;" x="60.20991" xlink:href="#md55ab54a9f" y="299.518125"/>
      </g>
     </g>
     <g id="text_1">
      <!-- 3430 -->
      <g transform="translate(47.48491 314.116563)scale(0.1 -0.1)">
       <defs>
        <path d="M 2597 2516 
Q 3050 2419 3304 2112 
Q 3559 1806 3559 1356 
Q 3559 666 3084 287 
Q 2609 -91 1734 -91 
Q 1441 -91 1130 -33 
Q 819 25 488 141 
L 488 750 
Q 750 597 1062 519 
Q 1375 441 1716 441 
Q 2309 441 2620 675 
Q 2931 909 2931 1356 
Q 2931 1769 2642 2001 
Q 2353 2234 1838 2234 
L 1294 2234 
L 1294 2753 
L 1863 2753 
Q 2328 2753 2575 2939 
Q 2822 3125 2822 3475 
Q 2822 3834 2567 4026 
Q 2313 4219 1838 4219 
Q 1578 4219 1281 4162 
Q 984 4106 628 3988 
L 628 4550 
Q 988 4650 1302 4700 
Q 1616 4750 1894 4750 
Q 2613 4750 3031 4423 
Q 3450 4097 3450 3541 
Q 3450 3153 3228 2886 
Q 3006 2619 2597 2516 
z
" id="DejaVuSans-33" transform="scale(0.015625)"/>
        <path d="M 2419 4116 
L 825 1625 
L 2419 1625 
L 2419 4116 
z
M 2253 4666 
L 3047 4666 
L 3047 1625 
L 3713 1625 
L 3713 1100 
L 3047 1100 
L 3047 0 
L 2419 0 
L 2419 1100 
L 313 1100 
L 313 1709 
L 2253 4666 
z
" id="DejaVuSans-34" transform="scale(0.015625)"/>
        <path d="M 2034 4250 
Q 1547 4250 1301 3770 
Q 1056 3291 1056 2328 
Q 1056 1369 1301 889 
Q 1547 409 2034 409 
Q 2525 409 2770 889 
Q 3016 1369 3016 2328 
Q 3016 3291 2770 3770 
Q 2525 4250 2034 4250 
z
M 2034 4750 
Q 2819 4750 3233 4129 
Q 3647 3509 3647 2328 
Q 3647 1150 3233 529 
Q 2819 -91 2034 -91 
Q 1250 -91 836 529 
Q 422 1150 422 2328 
Q 422 3509 836 4129 
Q 1250 4750 2034 4750 
z
" id="DejaVuSans-30" transform="scale(0.015625)"/>
       </defs>
       <use xlink:href="#DejaVuSans-33"/>
       <use x="63.623047" xlink:href="#DejaVuSans-34"/>
       <use x="127.246094" xlink:href="#DejaVuSans-33"/>
       <use x="190.869141" xlink:href="#DejaVuSans-30"/>
      </g>
     </g>
    </g>
    <g id="xtick_2">
     <g id="line2d_2">
      <g>
       <use style="stroke:#000000;stroke-width:0.8;" x="115.625327" xlink:href="#md55ab54a9f" y="299.518125"/>
      </g>
     </g>
     <g id="text_2">
      <!-- 3440 -->
      <g transform="translate(102.900327 314.116563)scale(0.1 -0.1)">
       <use xlink:href="#DejaVuSans-33"/>
       <use x="63.623047" xlink:href="#DejaVuSans-34"/>
       <use x="127.246094" xlink:href="#DejaVuSans-34"/>
       <use x="190.869141" xlink:href="#DejaVuSans-30"/>
      </g>
     </g>
    </g>
    <g id="xtick_3">
     <g id="line2d_3">
      <g>
       <use style="stroke:#000000;stroke-width:0.8;" x="171.040744" xlink:href="#md55ab54a9f" y="299.518125"/>
      </g>
     </g>
     <g id="text_3">
      <!-- 3450 -->
      <g transform="translate(158.315744 314.116563)scale(0.1 -0.1)">
       <defs>
        <path d="M 691 4666 
L 3169 4666 
L 3169 4134 
L 1269 4134 
L 1269 2991 
Q 1406 3038 1543 3061 
Q 1681 3084 1819 3084 
Q 2600 3084 3056 2656 
Q 3513 2228 3513 1497 
Q 3513 744 3044 326 
Q 2575 -91 1722 -91 
Q 1428 -91 1123 -41 
Q 819 9 494 109 
L 494 744 
Q 775 591 1075 516 
Q 1375 441 1709 441 
Q 2250 441 2565 725 
Q 2881 1009 2881 1497 
Q 2881 1984 2565 2268 
Q 2250 2553 1709 2553 
Q 1456 2553 1204 2497 
Q 953 2441 691 2322 
L 691 4666 
z
" id="DejaVuSans-35" transform="scale(0.015625)"/>
       </defs>
       <use xlink:href="#DejaVuSans-33"/>
       <use x="63.623047" xlink:href="#DejaVuSans-34"/>
       <use x="127.246094" xlink:href="#DejaVuSans-35"/>
       <use x="190.869141" xlink:href="#DejaVuSans-30"/>
      </g>
     </g>
    </g>
    <g id="xtick_4">
     <g id="line2d_4">
      <g>
       <use style="stroke:#000000;stroke-width:0.8;" x="226.456161" xlink:href="#md55ab54a9f" y="299.518125"/>
      </g>
     </g>
     <g id="text_4">
      <!-- 3460 -->
      <g transform="translate(213.731161 314.116563)scale(0.1 -0.1)">
       <defs>
        <path d="M 2113 2584 
Q 1688 2584 1439 2293 
Q 1191 2003 1191 1497 
Q 1191 994 1439 701 
Q 1688 409 2113 409 
Q 2538 409 2786 701 
Q 3034 994 3034 1497 
Q 3034 2003 2786 2293 
Q 2538 2584 2113 2584 
z
M 3366 4563 
L 3366 3988 
Q 3128 4100 2886 4159 
Q 2644 4219 2406 4219 
Q 1781 4219 1451 3797 
Q 1122 3375 1075 2522 
Q 1259 2794 1537 2939 
Q 1816 3084 2150 3084 
Q 2853 3084 3261 2657 
Q 3669 2231 3669 1497 
Q 3669 778 3244 343 
Q 2819 -91 2113 -91 
Q 1303 -91 875 529 
Q 447 1150 447 2328 
Q 447 3434 972 4092 
Q 1497 4750 2381 4750 
Q 2619 4750 2861 4703 
Q 3103 4656 3366 4563 
z
" id="DejaVuSans-36" transform="scale(0.015625)"/>
       </defs>
       <use xlink:href="#DejaVuSans-33"/>
       <use x="63.623047" xlink:href="#DejaVuSans-34"/>
       <use x="127.246094" xlink:href="#DejaVuSans-36"/>
       <use x="190.869141" xlink:href="#DejaVuSans-30"/>
      </g>
     </g>
    </g>
    <g id="xtick_5">
     <g id="line2d_5">
      <g>
       <use style="stroke:#000000;stroke-width:0.8;" x="281.871578" xlink:href="#md55ab54a9f" y="299.518125"/>
      </g>
     </g>
     <g id="text_5">
      <!-- 3470 -->
      <g transform="translate(269.146578 314.116563)scale(0.1 -0.1)">
       <defs>
        <path d="M 525 4666 
L 3525 4666 
L 3525 4397 
L 1831 0 
L 1172 0 
L 2766 4134 
L 525 4134 
L 525 4666 
z
" id="DejaVuSans-37" transform="scale(0.015625)"/>
       </defs>
       <use xlink:href="#DejaVuSans-33"/>
       <use x="63.623047" xlink:href="#DejaVuSans-34"/>
       <use x="127.246094" xlink:href="#DejaVuSans-37"/>
       <use x="190.869141" xlink:href="#DejaVuSans-30"/>
      </g>
     </g>
    </g>
    <g id="text_6">
     <!-- Database Window Index Minus Query Index -->
     <g transform="translate(59.38091 327.794688)scale(0.1 -0.1)">
      <defs>
       <path d="M 1259 4147 
L 1259 519 
L 2022 519 
Q 2988 519 3436 956 
Q 3884 1394 3884 2338 
Q 3884 3275 3436 3711 
Q 2988 4147 2022 4147 
L 1259 4147 
z
M 628 4666 
L 1925 4666 
Q 3281 4666 3915 4102 
Q 4550 3538 4550 2338 
Q 4550 1131 3912 565 
Q 3275 0 1925 0 
L 628 0 
L 628 4666 
z
" id="DejaVuSans-44" transform="scale(0.015625)"/>
       <path d="M 2194 1759 
Q 1497 1759 1228 1600 
Q 959 1441 959 1056 
Q 959 750 1161 570 
Q 1363 391 1709 391 
Q 2188 391 2477 730 
Q 2766 1069 2766 1631 
L 2766 1759 
L 2194 1759 
z
M 3341 1997 
L 3341 0 
L 2766 0 
L 2766 531 
Q 2569 213 2275 61 
Q 1981 -91 1556 -91 
Q 1019 -91 701 211 
Q 384 513 384 1019 
Q 384 1609 779 1909 
Q 1175 2209 1959 2209 
L 2766 2209 
L 2766 2266 
Q 2766 2663 2505 2880 
Q 2244 3097 1772 3097 
Q 1472 3097 1187 3025 
Q 903 2953 641 2809 
L 641 3341 
Q 956 3463 1253 3523 
Q 1550 3584 1831 3584 
Q 2591 3584 2966 3190 
Q 3341 2797 3341 1997 
z
" id="DejaVuSans-61" transform="scale(0.015625)"/>
       <path d="M 1172 4494 
L 1172 3500 
L 2356 3500 
L 2356 3053 
L 1172 3053 
L 1172 1153 
Q 1172 725 1289 603 
Q 1406 481 1766 481 
L 2356 481 
L 2356 0 
L 1766 0 
Q 1100 0 847 248 
Q 594 497 594 1153 
L 594 3053 
L 172 3053 
L 172 3500 
L 594 3500 
L 594 4494 
L 1172 4494 
z
" id="DejaVuSans-74" transform="scale(0.015625)"/>
       <path d="M 3116 1747 
Q 3116 2381 2855 2742 
Q 2594 3103 2138 3103 
Q 1681 3103 1420 2742 
Q 1159 2381 1159 1747 
Q 1159 1113 1420 752 
Q 1681 391 2138 391 
Q 2594 391 2855 752 
Q 3116 1113 3116 1747 
z
M 1159 2969 
Q 1341 3281 1617 3432 
Q 1894 3584 2278 3584 
Q 2916 3584 3314 3078 
Q 3713 2572 3713 1747 
Q 3713 922 3314 415 
Q 2916 -91 2278 -91 
Q 1894 -91 1617 61 
Q 1341 213 1159 525 
L 1159 0 
L 581 0 
L 581 4863 
L 1159 4863 
L 1159 2969 
z
" id="DejaVuSans-62" transform="scale(0.015625)"/>
       <path d="M 2834 3397 
L 2834 2853 
Q 2591 2978 2328 3040 
Q 2066 3103 1784 3103 
Q 1356 3103 1142 2972 
Q 928 2841 928 2578 
Q 928 2378 1081 2264 
Q 1234 2150 1697 2047 
L 1894 2003 
Q 2506 1872 2764 1633 
Q 3022 1394 3022 966 
Q 3022 478 2636 193 
Q 2250 -91 1575 -91 
Q 1294 -91 989 -36 
Q 684 19 347 128 
L 347 722 
Q 666 556 975 473 
Q 1284 391 1588 391 
Q 1994 391 2212 530 
Q 2431 669 2431 922 
Q 2431 1156 2273 1281 
Q 2116 1406 1581 1522 
L 1381 1569 
Q 847 1681 609 1914 
Q 372 2147 372 2553 
Q 372 3047 722 3315 
Q 1072 3584 1716 3584 
Q 2034 3584 2315 3537 
Q 2597 3491 2834 3397 
z
" id="DejaVuSans-73" transform="scale(0.015625)"/>
       <path d="M 3597 1894 
L 3597 1613 
L 953 1613 
Q 991 1019 1311 708 
Q 1631 397 2203 397 
Q 2534 397 2845 478 
Q 3156 559 3463 722 
L 3463 178 
Q 3153 47 2828 -22 
Q 2503 -91 2169 -91 
Q 1331 -91 842 396 
Q 353 884 353 1716 
Q 353 2575 817 3079 
Q 1281 3584 2069 3584 
Q 2775 3584 3186 3129 
Q 3597 2675 3597 1894 
z
M 3022 2063 
Q 3016 2534 2758 2815 
Q 2500 3097 2075 3097 
Q 1594 3097 1305 2825 
Q 1016 2553 972 2059 
L 3022 2063 
z
" id="DejaVuSans-65" transform="scale(0.015625)"/>
       <path id="DejaVuSans-20" transform="scale(0.015625)"/>
       <path d="M 213 4666 
L 850 4666 
L 1831 722 
L 2809 4666 
L 3519 4666 
L 4500 722 
L 5478 4666 
L 6119 4666 
L 4947 0 
L 4153 0 
L 3169 4050 
L 2175 0 
L 1381 0 
L 213 4666 
z
" id="DejaVuSans-57" transform="scale(0.015625)"/>
       <path d="M 603 3500 
L 1178 3500 
L 1178 0 
L 603 0 
L 603 3500 
z
M 603 4863 
L 1178 4863 
L 1178 4134 
L 603 4134 
L 603 4863 
z
" id="DejaVuSans-69" transform="scale(0.015625)"/>
       <path d="M 3513 2113 
L 3513 0 
L 2938 0 
L 2938 2094 
Q 2938 2591 2744 2837 
Q 2550 3084 2163 3084 
Q 1697 3084 1428 2787 
Q 1159 2491 1159 1978 
L 1159 0 
L 581 0 
L 581 3500 
L 1159 3500 
L 1159 2956 
Q 1366 3272 1645 3428 
Q 1925 3584 2291 3584 
Q 2894 3584 3203 3211 
Q 3513 2838 3513 2113 
z
" id="DejaVuSans-6e" transform="scale(0.015625)"/>
       <path d="M 2906 2969 
L 2906 4863 
L 3481 4863 
L 3481 0 
L 2906 0 
L 2906 525 
Q 2725 213 2448 61 
Q 2172 -91 1784 -91 
Q 1150 -91 751 415 
Q 353 922 353 1747 
Q 353 2572 751 3078 
Q 1150 3584 1784 3584 
Q 2172 3584 2448 3432 
Q 2725 3281 2906 2969 
z
M 947 1747 
Q 947 1113 1208 752 
Q 1469 391 1925 391 
Q 2381 391 2643 752 
Q 2906 1113 2906 1747 
Q 2906 2381 2643 2742 
Q 2381 3103 1925 3103 
Q 1469 3103 1208 2742 
Q 947 2381 947 1747 
z
" id="DejaVuSans-64" transform="scale(0.015625)"/>
       <path d="M 1959 3097 
Q 1497 3097 1228 2736 
Q 959 2375 959 1747 
Q 959 1119 1226 758 
Q 1494 397 1959 397 
Q 2419 397 2687 759 
Q 2956 1122 2956 1747 
Q 2956 2369 2687 2733 
Q 2419 3097 1959 3097 
z
M 1959 3584 
Q 2709 3584 3137 3096 
Q 3566 2609 3566 1747 
Q 3566 888 3137 398 
Q 2709 -91 1959 -91 
Q 1206 -91 779 398 
Q 353 888 353 1747 
Q 353 2609 779 3096 
Q 1206 3584 1959 3584 
z
" id="DejaVuSans-6f" transform="scale(0.015625)"/>
       <path d="M 269 3500 
L 844 3500 
L 1563 769 
L 2278 3500 
L 2956 3500 
L 3675 769 
L 4391 3500 
L 4966 3500 
L 4050 0 
L 3372 0 
L 2619 2869 
L 1863 0 
L 1184 0 
L 269 3500 
z
" id="DejaVuSans-77" transform="scale(0.015625)"/>
       <path d="M 628 4666 
L 1259 4666 
L 1259 0 
L 628 0 
L 628 4666 
z
" id="DejaVuSans-49" transform="scale(0.015625)"/>
       <path d="M 3513 3500 
L 2247 1797 
L 3578 0 
L 2900 0 
L 1881 1375 
L 863 0 
L 184 0 
L 1544 1831 
L 300 3500 
L 978 3500 
L 1906 2253 
L 2834 3500 
L 3513 3500 
z
" id="DejaVuSans-78" transform="scale(0.015625)"/>
       <path d="M 628 4666 
L 1569 4666 
L 2759 1491 
L 3956 4666 
L 4897 4666 
L 4897 0 
L 4281 0 
L 4281 4097 
L 3078 897 
L 2444 897 
L 1241 4097 
L 1241 0 
L 628 0 
L 628 4666 
z
" id="DejaVuSans-4d" transform="scale(0.015625)"/>
       <path d="M 544 1381 
L 544 3500 
L 1119 3500 
L 1119 1403 
Q 1119 906 1312 657 
Q 1506 409 1894 409 
Q 2359 409 2629 706 
Q 2900 1003 2900 1516 
L 2900 3500 
L 3475 3500 
L 3475 0 
L 2900 0 
L 2900 538 
Q 2691 219 2414 64 
Q 2138 -91 1772 -91 
Q 1169 -91 856 284 
Q 544 659 544 1381 
z
M 1991 3584 
L 1991 3584 
z
" id="DejaVuSans-75" transform="scale(0.015625)"/>
       <path d="M 2522 4238 
Q 1834 4238 1429 3725 
Q 1025 3213 1025 2328 
Q 1025 1447 1429 934 
Q 1834 422 2522 422 
Q 3209 422 3611 934 
Q 4013 1447 4013 2328 
Q 4013 3213 3611 3725 
Q 3209 4238 2522 4238 
z
M 3406 84 
L 4238 -825 
L 3475 -825 
L 2784 -78 
Q 2681 -84 2626 -87 
Q 2572 -91 2522 -91 
Q 1538 -91 948 567 
Q 359 1225 359 2328 
Q 359 3434 948 4092 
Q 1538 4750 2522 4750 
Q 3503 4750 4090 4092 
Q 4678 3434 4678 2328 
Q 4678 1516 4351 937 
Q 4025 359 3406 84 
z
" id="DejaVuSans-51" transform="scale(0.015625)"/>
       <path d="M 2631 2963 
Q 2534 3019 2420 3045 
Q 2306 3072 2169 3072 
Q 1681 3072 1420 2755 
Q 1159 2438 1159 1844 
L 1159 0 
L 581 0 
L 581 3500 
L 1159 3500 
L 1159 2956 
Q 1341 3275 1631 3429 
Q 1922 3584 2338 3584 
Q 2397 3584 2469 3576 
Q 2541 3569 2628 3553 
L 2631 2963 
z
" id="DejaVuSans-72" transform="scale(0.015625)"/>
       <path d="M 2059 -325 
Q 1816 -950 1584 -1140 
Q 1353 -1331 966 -1331 
L 506 -1331 
L 506 -850 
L 844 -850 
Q 1081 -850 1212 -737 
Q 1344 -625 1503 -206 
L 1606 56 
L 191 3500 
L 800 3500 
L 1894 763 
L 2988 3500 
L 3597 3500 
L 2059 -325 
z
" id="DejaVuSans-79" transform="scale(0.015625)"/>
      </defs>
      <use xlink:href="#DejaVuSans-44"/>
      <use x="77.001953" xlink:href="#DejaVuSans-61"/>
      <use x="138.28125" xlink:href="#DejaVuSans-74"/>
      <use x="177.490234" xlink:href="#DejaVuSans-61"/>
      <use x="238.769531" xlink:href="#DejaVuSans-62"/>
      <use x="302.246094" xlink:href="#DejaVuSans-61"/>
      <use x="363.525391" xlink:href="#DejaVuSans-73"/>
      <use x="415.625" xlink:href="#DejaVuSans-65"/>
      <use x="477.148438" xlink:href="#DejaVuSans-20"/>
      <use x="508.935547" xlink:href="#DejaVuSans-57"/>
      <use x="605.5625" xlink:href="#DejaVuSans-69"/>
      <use x="633.345703" xlink:href="#DejaVuSans-6e"/>
      <use x="696.724609" xlink:href="#DejaVuSans-64"/>
      <use x="760.201172" xlink:href="#DejaVuSans-6f"/>
      <use x="821.382812" xlink:href="#DejaVuSans-77"/>
      <use x="903.169922" xlink:href="#DejaVuSans-20"/>
      <use x="934.957031" xlink:href="#DejaVuSans-49"/>
      <use x="964.449219" xlink:href="#DejaVuSans-6e"/>
      <use x="1027.828125" xlink:href="#DejaVuSans-64"/>
      <use x="1091.304688" xlink:href="#DejaVuSans-65"/>
      <use x="1151.078125" xlink:href="#DejaVuSans-78"/>
      <use x="1210.257812" xlink:href="#DejaVuSans-20"/>
      <use x="1242.044922" xlink:href="#DejaVuSans-4d"/>
      <use x="1328.324219" xlink:href="#DejaVuSans-69"/>
      <use x="1356.107422" xlink:href="#DejaVuSans-6e"/>
      <use x="1419.486328" xlink:href="#DejaVuSans-75"/>
      <use x="1482.865234" xlink:href="#DejaVuSans-73"/>
      <use x="1534.964844" xlink:href="#DejaVuSans-20"/>
      <use x="1566.751953" xlink:href="#DejaVuSans-51"/>
      <use x="1645.462891" xlink:href="#DejaVuSans-75"/>
      <use x="1708.841797" xlink:href="#DejaVuSans-65"/>
      <use x="1770.365234" xlink:href="#DejaVuSans-72"/>
      <use x="1811.478516" xlink:href="#DejaVuSans-79"/>
      <use x="1870.658203" xlink:href="#DejaVuSans-20"/>
      <use x="1902.445312" xlink:href="#DejaVuSans-49"/>
      <use x="1931.9375" xlink:href="#DejaVuSans-6e"/>
      <use x="1995.316406" xlink:href="#DejaVuSans-64"/>
      <use x="2058.792969" xlink:href="#DejaVuSans-65"/>
      <use x="2118.566406" xlink:href="#DejaVuSans-78"/>
     </g>
    </g>
   </g>
   <g id="matplotlib.axis_2">
    <g id="ytick_1">
     <g id="line2d_6">
      <defs>
       <path d="M 0 0 
L -3.5 0 
" id="m073dd9d4b3" style="stroke:#000000;stroke-width:0.8;"/>
      </defs>
      <g>
       <use style="stroke:#000000;stroke-width:0.8;" x="46.965625" xlink:href="#m073dd9d4b3" y="299.518125"/>
      </g>
     </g>
     <g id="text_7">
      <!-- 0 -->
      <g transform="translate(33.603125 303.317344)scale(0.1 -0.1)">
       <use xlink:href="#DejaVuSans-30"/>
      </g>
     </g>
    </g>
    <g id="ytick_2">
     <g id="line2d_7">
      <g>
       <use style="stroke:#000000;stroke-width:0.8;" x="46.965625" xlink:href="#m073dd9d4b3" y="264.868125"/>
      </g>
     </g>
     <g id="text_8">
      <!-- 25 -->
      <g transform="translate(27.240625 268.667344)scale(0.1 -0.1)">
       <defs>
        <path d="M 1228 531 
L 3431 531 
L 3431 0 
L 469 0 
L 469 531 
Q 828 903 1448 1529 
Q 2069 2156 2228 2338 
Q 2531 2678 2651 2914 
Q 2772 3150 2772 3378 
Q 2772 3750 2511 3984 
Q 2250 4219 1831 4219 
Q 1534 4219 1204 4116 
Q 875 4013 500 3803 
L 500 4441 
Q 881 4594 1212 4672 
Q 1544 4750 1819 4750 
Q 2544 4750 2975 4387 
Q 3406 4025 3406 3419 
Q 3406 3131 3298 2873 
Q 3191 2616 2906 2266 
Q 2828 2175 2409 1742 
Q 1991 1309 1228 531 
z
" id="DejaVuSans-32" transform="scale(0.015625)"/>
       </defs>
       <use xlink:href="#DejaVuSans-32"/>
       <use x="63.623047" xlink:href="#DejaVuSans-35"/>
      </g>
     </g>
    </g>
    <g id="ytick_3">
     <g id="line2d_8">
      <g>
       <use style="stroke:#000000;stroke-width:0.8;" x="46.965625" xlink:href="#m073dd9d4b3" y="230.218125"/>
      </g>
     </g>
     <g id="text_9">
      <!-- 50 -->
      <g transform="translate(27.240625 234.017344)scale(0.1 -0.1)">
       <use xlink:href="#DejaVuSans-35"/>
       <use x="63.623047" xlink:href="#DejaVuSans-30"/>
      </g>
     </g>
    </g>
    <g id="ytick_4">
     <g id="line2d_9">
      <g>
       <use style="stroke:#000000;stroke-width:0.8;" x="46.965625" xlink:href="#m073dd9d4b3" y="195.568125"/>
      </g>
     </g>
     <g id="text_10">
      <!-- 75 -->
      <g transform="translate(27.240625 199.367344)scale(0.1 -0.1)">
       <use xlink:href="#DejaVuSans-37"/>
       <use x="63.623047" xlink:href="#DejaVuSans-35"/>
      </g>
     </g>
    </g>
    <g id="ytick_5">
     <g id="line2d_10">
      <g>
       <use style="stroke:#000000;stroke-width:0.8;" x="46.965625" xlink:href="#m073dd9d4b3" y="160.918125"/>
      </g>
     </g>
     <g id="text_11">
      <!-- 100 -->
      <g transform="translate(20.878125 164.717344)scale(0.1 -0.1)">
       <defs>
        <path d="M 794 531 
L 1825 531 
L 1825 4091 
L 703 3866 
L 703 4441 
L 1819 4666 
L 2450 4666 
L 2450 531 
L 3481 531 
L 3481 0 
L 794 0 
L 794 531 
z
" id="DejaVuSans-31" transform="scale(0.015625)"/>
       </defs>
       <use xlink:href="#DejaVuSans-31"/>
       <use x="63.623047" xlink:href="#DejaVuSans-30"/>
       <use x="127.246094" xlink:href="#DejaVuSans-30"/>
      </g>
     </g>
    </g>
    <g id="ytick_6">
     <g id="line2d_11">
      <g>
       <use style="stroke:#000000;stroke-width:0.8;" x="46.965625" xlink:href="#m073dd9d4b3" y="126.268125"/>
      </g>
     </g>
     <g id="text_12">
      <!-- 125 -->
      <g transform="translate(20.878125 130.067344)scale(0.1 -0.1)">
       <use xlink:href="#DejaVuSans-31"/>
       <use x="63.623047" xlink:href="#DejaVuSans-32"/>
       <use x="127.246094" xlink:href="#DejaVuSans-35"/>
      </g>
     </g>
    </g>
    <g id="ytick_7">
     <g id="line2d_12">
      <g>
       <use style="stroke:#000000;stroke-width:0.8;" x="46.965625" xlink:href="#m073dd9d4b3" y="91.618125"/>
      </g>
     </g>
     <g id="text_13">
      <!-- 150 -->
      <g transform="translate(20.878125 95.417344)scale(0.1 -0.1)">
       <use xlink:href="#DejaVuSans-31"/>
       <use x="63.623047" xlink:href="#DejaVuSans-35"/>
       <use x="127.246094" xlink:href="#DejaVuSans-30"/>
      </g>
     </g>
    </g>
    <g id="ytick_8">
     <g id="line2d_13">
      <g>
       <use style="stroke:#000000;stroke-width:0.8;" x="46.965625" xlink:href="#m073dd9d4b3" y="56.968125"/>
      </g>
     </g>
     <g id="text_14">
      <!-- 175 -->
      <g transform="translate(20.878125 60.767344)scale(0.1 -0.1)">
       <use xlink:href="#DejaVuSans-31"/>
       <use x="63.623047" xlink:href="#DejaVuSans-37"/>
       <use x="127.246094" xlink:href="#DejaVuSans-35"/>
      </g>
     </g>
    </g>
    <g id="ytick_9">
     <g id="line2d_14">
      <g>
       <use style="stroke:#000000;stroke-width:0.8;" x="46.965625" xlink:href="#m073dd9d4b3" y="22.318125"/>
      </g>
     </g>
     <g id="text_15">
      <!-- 200 -->
      <g transform="translate(20.878125 26.117344)scale(0.1 -0.1)">
       <use xlink:href="#DejaVuSans-32"/>
       <use x="63.623047" xlink:href="#DejaVuSans-30"/>
       <use x="127.246094" xlink:href="#DejaVuSans-30"/>
      </g>
     </g>
    </g>
    <g id="text_16">
     <!-- Counts -->
     <g transform="translate(14.798438 178.37125)rotate(-90)scale(0.1 -0.1)">
      <defs>
       <path d="M 4122 4306 
L 4122 3641 
Q 3803 3938 3442 4084 
Q 3081 4231 2675 4231 
Q 1875 4231 1450 3742 
Q 1025 3253 1025 2328 
Q 1025 1406 1450 917 
Q 1875 428 2675 428 
Q 3081 428 3442 575 
Q 3803 722 4122 1019 
L 4122 359 
Q 3791 134 3420 21 
Q 3050 -91 2638 -91 
Q 1578 -91 968 557 
Q 359 1206 359 2328 
Q 359 3453 968 4101 
Q 1578 4750 2638 4750 
Q 3056 4750 3426 4639 
Q 3797 4528 4122 4306 
z
" id="DejaVuSans-43" transform="scale(0.015625)"/>
      </defs>
      <use xlink:href="#DejaVuSans-43"/>
      <use x="69.824219" xlink:href="#DejaVuSans-6f"/>
      <use x="131.005859" xlink:href="#DejaVuSans-75"/>
      <use x="194.384766" xlink:href="#DejaVuSans-6e"/>
      <use x="257.763672" xlink:href="#DejaVuSans-74"/>
      <use x="296.972656" xlink:href="#DejaVuSans-73"/>
     </g>
    </g>
   </g>
   <g id="patch_43">
    <path d="M 46.965625 299.518125 
L 46.965625 22.318125 
" style="fill:none;stroke:#000000;stroke-linecap:square;stroke-linejoin:miter;stroke-width:0.8;"/>
   </g>
   <g id="patch_44">
    <path d="M 289.574321 299.518125 
L 289.574321 22.318125 
" style="fill:none;stroke:#000000;stroke-linecap:square;stroke-linejoin:miter;stroke-width:0.8;"/>
   </g>
   <g id="patch_45">
    <path d="M 46.965625 299.518125 
L 289.574321 299.518125 
" style="fill:none;stroke:#000000;stroke-linecap:square;stroke-linejoin:miter;stroke-width:0.8;"/>
   </g>
   <g id="patch_46">
    <path d="M 46.965625 22.318125 
L 289.574321 22.318125 
" style="fill:none;stroke:#000000;stroke-linecap:square;stroke-linejoin:miter;stroke-width:0.8;"/>
   </g>
   <g id="text_17">
    <!-- Touch The Sky -->
    <g transform="translate(125.459973 16.318125)scale(0.12 -0.12)">
     <defs>
      <path d="M -19 4666 
L 3928 4666 
L 3928 4134 
L 2272 4134 
L 2272 0 
L 1638 0 
L 1638 4134 
L -19 4134 
L -19 4666 
z
" id="DejaVuSans-54" transform="scale(0.015625)"/>
      <path d="M 3122 3366 
L 3122 2828 
Q 2878 2963 2633 3030 
Q 2388 3097 2138 3097 
Q 1578 3097 1268 2742 
Q 959 2388 959 1747 
Q 959 1106 1268 751 
Q 1578 397 2138 397 
Q 2388 397 2633 464 
Q 2878 531 3122 666 
L 3122 134 
Q 2881 22 2623 -34 
Q 2366 -91 2075 -91 
Q 1284 -91 818 406 
Q 353 903 353 1747 
Q 353 2603 823 3093 
Q 1294 3584 2113 3584 
Q 2378 3584 2631 3529 
Q 2884 3475 3122 3366 
z
" id="DejaVuSans-63" transform="scale(0.015625)"/>
      <path d="M 3513 2113 
L 3513 0 
L 2938 0 
L 2938 2094 
Q 2938 2591 2744 2837 
Q 2550 3084 2163 3084 
Q 1697 3084 1428 2787 
Q 1159 2491 1159 1978 
L 1159 0 
L 581 0 
L 581 4863 
L 1159 4863 
L 1159 2956 
Q 1366 3272 1645 3428 
Q 1925 3584 2291 3584 
Q 2894 3584 3203 3211 
Q 3513 2838 3513 2113 
z
" id="DejaVuSans-68" transform="scale(0.015625)"/>
      <path d="M 3425 4513 
L 3425 3897 
Q 3066 4069 2747 4153 
Q 2428 4238 2131 4238 
Q 1616 4238 1336 4038 
Q 1056 3838 1056 3469 
Q 1056 3159 1242 3001 
Q 1428 2844 1947 2747 
L 2328 2669 
Q 3034 2534 3370 2195 
Q 3706 1856 3706 1288 
Q 3706 609 3251 259 
Q 2797 -91 1919 -91 
Q 1588 -91 1214 -16 
Q 841 59 441 206 
L 441 856 
Q 825 641 1194 531 
Q 1563 422 1919 422 
Q 2459 422 2753 634 
Q 3047 847 3047 1241 
Q 3047 1584 2836 1778 
Q 2625 1972 2144 2069 
L 1759 2144 
Q 1053 2284 737 2584 
Q 422 2884 422 3419 
Q 422 4038 858 4394 
Q 1294 4750 2059 4750 
Q 2388 4750 2728 4690 
Q 3069 4631 3425 4513 
z
" id="DejaVuSans-53" transform="scale(0.015625)"/>
      <path d="M 581 4863 
L 1159 4863 
L 1159 1991 
L 2875 3500 
L 3609 3500 
L 1753 1863 
L 3688 0 
L 2938 0 
L 1159 1709 
L 1159 0 
L 581 0 
L 581 4863 
z
" id="DejaVuSans-6b" transform="scale(0.015625)"/>
     </defs>
     <use xlink:href="#DejaVuSans-54"/>
     <use x="44.083984" xlink:href="#DejaVuSans-6f"/>
     <use x="105.265625" xlink:href="#DejaVuSans-75"/>
     <use x="168.644531" xlink:href="#DejaVuSans-63"/>
     <use x="223.625" xlink:href="#DejaVuSans-68"/>
     <use x="287.003906" xlink:href="#DejaVuSans-20"/>
     <use x="318.791016" xlink:href="#DejaVuSans-54"/>
     <use x="379.875" xlink:href="#DejaVuSans-68"/>
     <use x="443.253906" xlink:href="#DejaVuSans-65"/>
     <use x="504.777344" xlink:href="#DejaVuSans-20"/>
     <use x="536.564453" xlink:href="#DejaVuSans-53"/>
     <use x="600.041016" xlink:href="#DejaVuSans-6b"/>
     <use x="654.326172" xlink:href="#DejaVuSans-79"/>
    </g>
   </g>
  </g>
  <g id="axes_2">
   <g id="patch_47">
    <path d="M 338.09606 299.518125 
L 580.704755 299.518125 
L 580.704755 22.318125 
L 338.09606 22.318125 
z
" style="fill:#ffffff;"/>
   </g>
   <g id="patch_48">
    <path clip-path="url(#p1cdb2ffd32)" d="M 349.123728 299.518125 
L 353.556961 299.518125 
L 353.556961 299.518125 
L 349.123728 299.518125 
z
" style="fill:#1f77b4;"/>
   </g>
   <g id="patch_49">
    <path clip-path="url(#p1cdb2ffd32)" d="M 354.665269 299.518125 
L 359.098503 299.518125 
L 359.098503 299.518125 
L 354.665269 299.518125 
z
" style="fill:#1f77b4;"/>
   </g>
   <g id="patch_50">
    <path clip-path="url(#p1cdb2ffd32)" d="M 360.206811 299.518125 
L 364.640045 299.518125 
L 364.640045 299.518125 
L 360.206811 299.518125 
z
" style="fill:#1f77b4;"/>
   </g>
   <g id="patch_51">
    <path clip-path="url(#p1cdb2ffd32)" d="M 365.748353 299.518125 
L 370.181586 299.518125 
L 370.181586 299.518125 
L 365.748353 299.518125 
z
" style="fill:#1f77b4;"/>
   </g>
   <g id="patch_52">
    <path clip-path="url(#p1cdb2ffd32)" d="M 371.289895 299.518125 
L 375.723128 299.518125 
L 375.723128 299.518125 
L 371.289895 299.518125 
z
" style="fill:#1f77b4;"/>
   </g>
   <g id="patch_53">
    <path clip-path="url(#p1cdb2ffd32)" d="M 376.831436 299.518125 
L 381.26467 299.518125 
L 381.26467 299.518125 
L 376.831436 299.518125 
z
" style="fill:#1f77b4;"/>
   </g>
   <g id="patch_54">
    <path clip-path="url(#p1cdb2ffd32)" d="M 382.372978 299.518125 
L 386.806211 299.518125 
L 386.806211 299.518125 
L 382.372978 299.518125 
z
" style="fill:#1f77b4;"/>
   </g>
   <g id="patch_55">
    <path clip-path="url(#p1cdb2ffd32)" d="M 387.91452 299.518125 
L 392.347753 299.518125 
L 392.347753 299.518125 
L 387.91452 299.518125 
z
" style="fill:#1f77b4;"/>
   </g>
   <g id="patch_56">
    <path clip-path="url(#p1cdb2ffd32)" d="M 393.456061 299.518125 
L 397.889295 299.518125 
L 397.889295 299.518125 
L 393.456061 299.518125 
z
" style="fill:#1f77b4;"/>
   </g>
   <g id="patch_57">
    <path clip-path="url(#p1cdb2ffd32)" d="M 398.997603 299.518125 
L 403.430836 299.518125 
L 403.430836 299.518125 
L 398.997603 299.518125 
z
" style="fill:#1f77b4;"/>
   </g>
   <g id="patch_58">
    <path clip-path="url(#p1cdb2ffd32)" d="M 404.539145 299.518125 
L 408.972378 299.518125 
L 408.972378 299.518125 
L 404.539145 299.518125 
z
" style="fill:#1f77b4;"/>
   </g>
   <g id="patch_59">
    <path clip-path="url(#p1cdb2ffd32)" d="M 410.080686 299.518125 
L 414.51392 299.518125 
L 414.51392 299.518125 
L 410.080686 299.518125 
z
" style="fill:#1f77b4;"/>
   </g>
   <g id="patch_60">
    <path clip-path="url(#p1cdb2ffd32)" d="M 415.622228 299.518125 
L 420.055462 299.518125 
L 420.055462 299.518125 
L 415.622228 299.518125 
z
" style="fill:#1f77b4;"/>
   </g>
   <g id="patch_61">
    <path clip-path="url(#p1cdb2ffd32)" d="M 421.16377 299.518125 
L 425.597003 299.518125 
L 425.597003 299.518125 
L 421.16377 299.518125 
z
" style="fill:#1f77b4;"/>
   </g>
   <g id="patch_62">
    <path clip-path="url(#p1cdb2ffd32)" d="M 426.705312 299.518125 
L 431.138545 299.518125 
L 431.138545 299.518125 
L 426.705312 299.518125 
z
" style="fill:#1f77b4;"/>
   </g>
   <g id="patch_63">
    <path clip-path="url(#p1cdb2ffd32)" d="M 432.246853 299.518125 
L 436.680087 299.518125 
L 436.680087 299.518125 
L 432.246853 299.518125 
z
" style="fill:#1f77b4;"/>
   </g>
   <g id="patch_64">
    <path clip-path="url(#p1cdb2ffd32)" d="M 437.788395 299.518125 
L 442.221628 299.518125 
L 442.221628 299.518125 
L 437.788395 299.518125 
z
" style="fill:#1f77b4;"/>
   </g>
   <g id="patch_65">
    <path clip-path="url(#p1cdb2ffd32)" d="M 443.329937 299.518125 
L 447.76317 299.518125 
L 447.76317 299.518125 
L 443.329937 299.518125 
z
" style="fill:#1f77b4;"/>
   </g>
   <g id="patch_66">
    <path clip-path="url(#p1cdb2ffd32)" d="M 448.871478 299.518125 
L 453.304712 299.518125 
L 453.304712 299.518125 
L 448.871478 299.518125 
z
" style="fill:#1f77b4;"/>
   </g>
   <g id="patch_67">
    <path clip-path="url(#p1cdb2ffd32)" d="M 454.41302 299.518125 
L 458.846253 299.518125 
L 458.846253 299.518125 
L 454.41302 299.518125 
z
" style="fill:#1f77b4;"/>
   </g>
   <g id="patch_68">
    <path clip-path="url(#p1cdb2ffd32)" d="M 459.954562 299.518125 
L 464.387795 299.518125 
L 464.387795 293.974125 
L 459.954562 293.974125 
z
" style="fill:#1f77b4;"/>
   </g>
   <g id="patch_69">
    <path clip-path="url(#p1cdb2ffd32)" d="M 465.496103 299.518125 
L 469.929337 299.518125 
L 469.929337 299.518125 
L 465.496103 299.518125 
z
" style="fill:#1f77b4;"/>
   </g>
   <g id="patch_70">
    <path clip-path="url(#p1cdb2ffd32)" d="M 471.037645 299.518125 
L 475.470879 299.518125 
L 475.470879 299.518125 
L 471.037645 299.518125 
z
" style="fill:#1f77b4;"/>
   </g>
   <g id="patch_71">
    <path clip-path="url(#p1cdb2ffd32)" d="M 476.579187 299.518125 
L 481.01242 299.518125 
L 481.01242 299.518125 
L 476.579187 299.518125 
z
" style="fill:#1f77b4;"/>
   </g>
   <g id="patch_72">
    <path clip-path="url(#p1cdb2ffd32)" d="M 482.120729 299.518125 
L 486.553962 299.518125 
L 486.553962 299.518125 
L 482.120729 299.518125 
z
" style="fill:#1f77b4;"/>
   </g>
   <g id="patch_73">
    <path clip-path="url(#p1cdb2ffd32)" d="M 487.66227 299.518125 
L 492.095504 299.518125 
L 492.095504 299.518125 
L 487.66227 299.518125 
z
" style="fill:#1f77b4;"/>
   </g>
   <g id="patch_74">
    <path clip-path="url(#p1cdb2ffd32)" d="M 493.203812 299.518125 
L 497.637045 299.518125 
L 497.637045 299.518125 
L 493.203812 299.518125 
z
" style="fill:#1f77b4;"/>
   </g>
   <g id="patch_75">
    <path clip-path="url(#p1cdb2ffd32)" d="M 498.745354 299.518125 
L 503.178587 299.518125 
L 503.178587 299.518125 
L 498.745354 299.518125 
z
" style="fill:#1f77b4;"/>
   </g>
   <g id="patch_76">
    <path clip-path="url(#p1cdb2ffd32)" d="M 504.286895 299.518125 
L 508.720129 299.518125 
L 508.720129 299.518125 
L 504.286895 299.518125 
z
" style="fill:#1f77b4;"/>
   </g>
   <g id="patch_77">
    <path clip-path="url(#p1cdb2ffd32)" d="M 509.828437 299.518125 
L 514.26167 299.518125 
L 514.26167 299.518125 
L 509.828437 299.518125 
z
" style="fill:#1f77b4;"/>
   </g>
   <g id="patch_78">
    <path clip-path="url(#p1cdb2ffd32)" d="M 515.369979 299.518125 
L 519.803212 299.518125 
L 519.803212 299.518125 
L 515.369979 299.518125 
z
" style="fill:#1f77b4;"/>
   </g>
   <g id="patch_79">
    <path clip-path="url(#p1cdb2ffd32)" d="M 520.91152 299.518125 
L 525.344754 299.518125 
L 525.344754 299.518125 
L 520.91152 299.518125 
z
" style="fill:#1f77b4;"/>
   </g>
   <g id="patch_80">
    <path clip-path="url(#p1cdb2ffd32)" d="M 526.453062 299.518125 
L 530.886296 299.518125 
L 530.886296 299.518125 
L 526.453062 299.518125 
z
" style="fill:#1f77b4;"/>
   </g>
   <g id="patch_81">
    <path clip-path="url(#p1cdb2ffd32)" d="M 531.994604 299.518125 
L 536.427837 299.518125 
L 536.427837 299.518125 
L 531.994604 299.518125 
z
" style="fill:#1f77b4;"/>
   </g>
   <g id="patch_82">
    <path clip-path="url(#p1cdb2ffd32)" d="M 537.536146 299.518125 
L 541.969379 299.518125 
L 541.969379 299.518125 
L 537.536146 299.518125 
z
" style="fill:#1f77b4;"/>
   </g>
   <g id="patch_83">
    <path clip-path="url(#p1cdb2ffd32)" d="M 543.077687 299.518125 
L 547.510921 299.518125 
L 547.510921 299.518125 
L 543.077687 299.518125 
z
" style="fill:#1f77b4;"/>
   </g>
   <g id="patch_84">
    <path clip-path="url(#p1cdb2ffd32)" d="M 548.619229 299.518125 
L 553.052462 299.518125 
L 553.052462 299.518125 
L 548.619229 299.518125 
z
" style="fill:#1f77b4;"/>
   </g>
   <g id="patch_85">
    <path clip-path="url(#p1cdb2ffd32)" d="M 554.160771 299.518125 
L 558.594004 299.518125 
L 558.594004 299.518125 
L 554.160771 299.518125 
z
" style="fill:#1f77b4;"/>
   </g>
   <g id="patch_86">
    <path clip-path="url(#p1cdb2ffd32)" d="M 559.702312 299.518125 
L 564.135546 299.518125 
L 564.135546 299.518125 
L 559.702312 299.518125 
z
" style="fill:#1f77b4;"/>
   </g>
   <g id="patch_87">
    <path clip-path="url(#p1cdb2ffd32)" d="M 565.243854 299.518125 
L 569.677087 299.518125 
L 569.677087 299.518125 
L 565.243854 299.518125 
z
" style="fill:#1f77b4;"/>
   </g>
   <g id="matplotlib.axis_3">
    <g id="xtick_6">
     <g id="line2d_15">
      <g>
       <use style="stroke:#000000;stroke-width:0.8;" x="362.423428" xlink:href="#md55ab54a9f" y="299.518125"/>
      </g>
     </g>
     <g id="text_18">
      <!-- 2810 -->
      <g transform="translate(349.698428 314.116563)scale(0.1 -0.1)">
       <defs>
        <path d="M 2034 2216 
Q 1584 2216 1326 1975 
Q 1069 1734 1069 1313 
Q 1069 891 1326 650 
Q 1584 409 2034 409 
Q 2484 409 2743 651 
Q 3003 894 3003 1313 
Q 3003 1734 2745 1975 
Q 2488 2216 2034 2216 
z
M 1403 2484 
Q 997 2584 770 2862 
Q 544 3141 544 3541 
Q 544 4100 942 4425 
Q 1341 4750 2034 4750 
Q 2731 4750 3128 4425 
Q 3525 4100 3525 3541 
Q 3525 3141 3298 2862 
Q 3072 2584 2669 2484 
Q 3125 2378 3379 2068 
Q 3634 1759 3634 1313 
Q 3634 634 3220 271 
Q 2806 -91 2034 -91 
Q 1263 -91 848 271 
Q 434 634 434 1313 
Q 434 1759 690 2068 
Q 947 2378 1403 2484 
z
M 1172 3481 
Q 1172 3119 1398 2916 
Q 1625 2713 2034 2713 
Q 2441 2713 2670 2916 
Q 2900 3119 2900 3481 
Q 2900 3844 2670 4047 
Q 2441 4250 2034 4250 
Q 1625 4250 1398 4047 
Q 1172 3844 1172 3481 
z
" id="DejaVuSans-38" transform="scale(0.015625)"/>
       </defs>
       <use xlink:href="#DejaVuSans-32"/>
       <use x="63.623047" xlink:href="#DejaVuSans-38"/>
       <use x="127.246094" xlink:href="#DejaVuSans-31"/>
       <use x="190.869141" xlink:href="#DejaVuSans-30"/>
      </g>
     </g>
    </g>
    <g id="xtick_7">
     <g id="line2d_16">
      <g>
       <use style="stroke:#000000;stroke-width:0.8;" x="417.838845" xlink:href="#md55ab54a9f" y="299.518125"/>
      </g>
     </g>
     <g id="text_19">
      <!-- 2820 -->
      <g transform="translate(405.113845 314.116563)scale(0.1 -0.1)">
       <use xlink:href="#DejaVuSans-32"/>
       <use x="63.623047" xlink:href="#DejaVuSans-38"/>
       <use x="127.246094" xlink:href="#DejaVuSans-32"/>
       <use x="190.869141" xlink:href="#DejaVuSans-30"/>
      </g>
     </g>
    </g>
    <g id="xtick_8">
     <g id="line2d_17">
      <g>
       <use style="stroke:#000000;stroke-width:0.8;" x="473.254262" xlink:href="#md55ab54a9f" y="299.518125"/>
      </g>
     </g>
     <g id="text_20">
      <!-- 2830 -->
      <g transform="translate(460.529262 314.116563)scale(0.1 -0.1)">
       <use xlink:href="#DejaVuSans-32"/>
       <use x="63.623047" xlink:href="#DejaVuSans-38"/>
       <use x="127.246094" xlink:href="#DejaVuSans-33"/>
       <use x="190.869141" xlink:href="#DejaVuSans-30"/>
      </g>
     </g>
    </g>
    <g id="xtick_9">
     <g id="line2d_18">
      <g>
       <use style="stroke:#000000;stroke-width:0.8;" x="528.669679" xlink:href="#md55ab54a9f" y="299.518125"/>
      </g>
     </g>
     <g id="text_21">
      <!-- 2840 -->
      <g transform="translate(515.944679 314.116563)scale(0.1 -0.1)">
       <use xlink:href="#DejaVuSans-32"/>
       <use x="63.623047" xlink:href="#DejaVuSans-38"/>
       <use x="127.246094" xlink:href="#DejaVuSans-34"/>
       <use x="190.869141" xlink:href="#DejaVuSans-30"/>
      </g>
     </g>
    </g>
    <g id="text_22">
     <!-- Database Window Index Minus Query Index -->
     <g transform="translate(350.511345 327.794688)scale(0.1 -0.1)">
      <use xlink:href="#DejaVuSans-44"/>
      <use x="77.001953" xlink:href="#DejaVuSans-61"/>
      <use x="138.28125" xlink:href="#DejaVuSans-74"/>
      <use x="177.490234" xlink:href="#DejaVuSans-61"/>
      <use x="238.769531" xlink:href="#DejaVuSans-62"/>
      <use x="302.246094" xlink:href="#DejaVuSans-61"/>
      <use x="363.525391" xlink:href="#DejaVuSans-73"/>
      <use x="415.625" xlink:href="#DejaVuSans-65"/>
      <use x="477.148438" xlink:href="#DejaVuSans-20"/>
      <use x="508.935547" xlink:href="#DejaVuSans-57"/>
      <use x="605.5625" xlink:href="#DejaVuSans-69"/>
      <use x="633.345703" xlink:href="#DejaVuSans-6e"/>
      <use x="696.724609" xlink:href="#DejaVuSans-64"/>
      <use x="760.201172" xlink:href="#DejaVuSans-6f"/>
      <use x="821.382812" xlink:href="#DejaVuSans-77"/>
      <use x="903.169922" xlink:href="#DejaVuSans-20"/>
      <use x="934.957031" xlink:href="#DejaVuSans-49"/>
      <use x="964.449219" xlink:href="#DejaVuSans-6e"/>
      <use x="1027.828125" xlink:href="#DejaVuSans-64"/>
      <use x="1091.304688" xlink:href="#DejaVuSans-65"/>
      <use x="1151.078125" xlink:href="#DejaVuSans-78"/>
      <use x="1210.257812" xlink:href="#DejaVuSans-20"/>
      <use x="1242.044922" xlink:href="#DejaVuSans-4d"/>
      <use x="1328.324219" xlink:href="#DejaVuSans-69"/>
      <use x="1356.107422" xlink:href="#DejaVuSans-6e"/>
      <use x="1419.486328" xlink:href="#DejaVuSans-75"/>
      <use x="1482.865234" xlink:href="#DejaVuSans-73"/>
      <use x="1534.964844" xlink:href="#DejaVuSans-20"/>
      <use x="1566.751953" xlink:href="#DejaVuSans-51"/>
      <use x="1645.462891" xlink:href="#DejaVuSans-75"/>
      <use x="1708.841797" xlink:href="#DejaVuSans-65"/>
      <use x="1770.365234" xlink:href="#DejaVuSans-72"/>
      <use x="1811.478516" xlink:href="#DejaVuSans-79"/>
      <use x="1870.658203" xlink:href="#DejaVuSans-20"/>
      <use x="1902.445312" xlink:href="#DejaVuSans-49"/>
      <use x="1931.9375" xlink:href="#DejaVuSans-6e"/>
      <use x="1995.316406" xlink:href="#DejaVuSans-64"/>
      <use x="2058.792969" xlink:href="#DejaVuSans-65"/>
      <use x="2118.566406" xlink:href="#DejaVuSans-78"/>
     </g>
    </g>
   </g>
   <g id="matplotlib.axis_4">
    <g id="ytick_10">
     <g id="line2d_19">
      <g>
       <use style="stroke:#000000;stroke-width:0.8;" x="338.09606" xlink:href="#m073dd9d4b3" y="299.518125"/>
      </g>
     </g>
     <g id="text_23">
      <!-- 0 -->
      <g transform="translate(324.73356 303.317344)scale(0.1 -0.1)">
       <use xlink:href="#DejaVuSans-30"/>
      </g>
     </g>
    </g>
    <g id="ytick_11">
     <g id="line2d_20">
      <g>
       <use style="stroke:#000000;stroke-width:0.8;" x="338.09606" xlink:href="#m073dd9d4b3" y="264.868125"/>
      </g>
     </g>
     <g id="text_24">
      <!-- 25 -->
      <g transform="translate(318.37106 268.667344)scale(0.1 -0.1)">
       <use xlink:href="#DejaVuSans-32"/>
       <use x="63.623047" xlink:href="#DejaVuSans-35"/>
      </g>
     </g>
    </g>
    <g id="ytick_12">
     <g id="line2d_21">
      <g>
       <use style="stroke:#000000;stroke-width:0.8;" x="338.09606" xlink:href="#m073dd9d4b3" y="230.218125"/>
      </g>
     </g>
     <g id="text_25">
      <!-- 50 -->
      <g transform="translate(318.37106 234.017344)scale(0.1 -0.1)">
       <use xlink:href="#DejaVuSans-35"/>
       <use x="63.623047" xlink:href="#DejaVuSans-30"/>
      </g>
     </g>
    </g>
    <g id="ytick_13">
     <g id="line2d_22">
      <g>
       <use style="stroke:#000000;stroke-width:0.8;" x="338.09606" xlink:href="#m073dd9d4b3" y="195.568125"/>
      </g>
     </g>
     <g id="text_26">
      <!-- 75 -->
      <g transform="translate(318.37106 199.367344)scale(0.1 -0.1)">
       <use xlink:href="#DejaVuSans-37"/>
       <use x="63.623047" xlink:href="#DejaVuSans-35"/>
      </g>
     </g>
    </g>
    <g id="ytick_14">
     <g id="line2d_23">
      <g>
       <use style="stroke:#000000;stroke-width:0.8;" x="338.09606" xlink:href="#m073dd9d4b3" y="160.918125"/>
      </g>
     </g>
     <g id="text_27">
      <!-- 100 -->
      <g transform="translate(312.00856 164.717344)scale(0.1 -0.1)">
       <use xlink:href="#DejaVuSans-31"/>
       <use x="63.623047" xlink:href="#DejaVuSans-30"/>
       <use x="127.246094" xlink:href="#DejaVuSans-30"/>
      </g>
     </g>
    </g>
    <g id="ytick_15">
     <g id="line2d_24">
      <g>
       <use style="stroke:#000000;stroke-width:0.8;" x="338.09606" xlink:href="#m073dd9d4b3" y="126.268125"/>
      </g>
     </g>
     <g id="text_28">
      <!-- 125 -->
      <g transform="translate(312.00856 130.067344)scale(0.1 -0.1)">
       <use xlink:href="#DejaVuSans-31"/>
       <use x="63.623047" xlink:href="#DejaVuSans-32"/>
       <use x="127.246094" xlink:href="#DejaVuSans-35"/>
      </g>
     </g>
    </g>
    <g id="ytick_16">
     <g id="line2d_25">
      <g>
       <use style="stroke:#000000;stroke-width:0.8;" x="338.09606" xlink:href="#m073dd9d4b3" y="91.618125"/>
      </g>
     </g>
     <g id="text_29">
      <!-- 150 -->
      <g transform="translate(312.00856 95.417344)scale(0.1 -0.1)">
       <use xlink:href="#DejaVuSans-31"/>
       <use x="63.623047" xlink:href="#DejaVuSans-35"/>
       <use x="127.246094" xlink:href="#DejaVuSans-30"/>
      </g>
     </g>
    </g>
    <g id="ytick_17">
     <g id="line2d_26">
      <g>
       <use style="stroke:#000000;stroke-width:0.8;" x="338.09606" xlink:href="#m073dd9d4b3" y="56.968125"/>
      </g>
     </g>
     <g id="text_30">
      <!-- 175 -->
      <g transform="translate(312.00856 60.767344)scale(0.1 -0.1)">
       <use xlink:href="#DejaVuSans-31"/>
       <use x="63.623047" xlink:href="#DejaVuSans-37"/>
       <use x="127.246094" xlink:href="#DejaVuSans-35"/>
      </g>
     </g>
    </g>
    <g id="ytick_18">
     <g id="line2d_27">
      <g>
       <use style="stroke:#000000;stroke-width:0.8;" x="338.09606" xlink:href="#m073dd9d4b3" y="22.318125"/>
      </g>
     </g>
     <g id="text_31">
      <!-- 200 -->
      <g transform="translate(312.00856 26.117344)scale(0.1 -0.1)">
       <use xlink:href="#DejaVuSans-32"/>
       <use x="63.623047" xlink:href="#DejaVuSans-30"/>
       <use x="127.246094" xlink:href="#DejaVuSans-30"/>
      </g>
     </g>
    </g>
    <g id="text_32">
     <!-- Counts -->
     <g transform="translate(305.928872 178.37125)rotate(-90)scale(0.1 -0.1)">
      <use xlink:href="#DejaVuSans-43"/>
      <use x="69.824219" xlink:href="#DejaVuSans-6f"/>
      <use x="131.005859" xlink:href="#DejaVuSans-75"/>
      <use x="194.384766" xlink:href="#DejaVuSans-6e"/>
      <use x="257.763672" xlink:href="#DejaVuSans-74"/>
      <use x="296.972656" xlink:href="#DejaVuSans-73"/>
     </g>
    </g>
   </g>
   <g id="patch_88">
    <path d="M 338.09606 299.518125 
L 338.09606 22.318125 
" style="fill:none;stroke:#000000;stroke-linecap:square;stroke-linejoin:miter;stroke-width:0.8;"/>
   </g>
   <g id="patch_89">
    <path d="M 580.704755 299.518125 
L 580.704755 22.318125 
" style="fill:none;stroke:#000000;stroke-linecap:square;stroke-linejoin:miter;stroke-width:0.8;"/>
   </g>
   <g id="patch_90">
    <path d="M 338.09606 299.518125 
L 580.704755 299.518125 
" style="fill:none;stroke:#000000;stroke-linecap:square;stroke-linejoin:miter;stroke-width:0.8;"/>
   </g>
   <g id="patch_91">
    <path d="M 338.09606 22.318125 
L 580.704755 22.318125 
" style="fill:none;stroke:#000000;stroke-linecap:square;stroke-linejoin:miter;stroke-width:0.8;"/>
   </g>
   <g id="text_33">
    <!-- Everybody Have Fun Tonight -->
    <g transform="translate(373.879783 16.318125)scale(0.12 -0.12)">
     <defs>
      <path d="M 628 4666 
L 3578 4666 
L 3578 4134 
L 1259 4134 
L 1259 2753 
L 3481 2753 
L 3481 2222 
L 1259 2222 
L 1259 531 
L 3634 531 
L 3634 0 
L 628 0 
L 628 4666 
z
" id="DejaVuSans-45" transform="scale(0.015625)"/>
      <path d="M 191 3500 
L 800 3500 
L 1894 563 
L 2988 3500 
L 3597 3500 
L 2284 0 
L 1503 0 
L 191 3500 
z
" id="DejaVuSans-76" transform="scale(0.015625)"/>
      <path d="M 628 4666 
L 1259 4666 
L 1259 2753 
L 3553 2753 
L 3553 4666 
L 4184 4666 
L 4184 0 
L 3553 0 
L 3553 2222 
L 1259 2222 
L 1259 0 
L 628 0 
L 628 4666 
z
" id="DejaVuSans-48" transform="scale(0.015625)"/>
      <path d="M 628 4666 
L 3309 4666 
L 3309 4134 
L 1259 4134 
L 1259 2759 
L 3109 2759 
L 3109 2228 
L 1259 2228 
L 1259 0 
L 628 0 
L 628 4666 
z
" id="DejaVuSans-46" transform="scale(0.015625)"/>
      <path d="M 2906 1791 
Q 2906 2416 2648 2759 
Q 2391 3103 1925 3103 
Q 1463 3103 1205 2759 
Q 947 2416 947 1791 
Q 947 1169 1205 825 
Q 1463 481 1925 481 
Q 2391 481 2648 825 
Q 2906 1169 2906 1791 
z
M 3481 434 
Q 3481 -459 3084 -895 
Q 2688 -1331 1869 -1331 
Q 1566 -1331 1297 -1286 
Q 1028 -1241 775 -1147 
L 775 -588 
Q 1028 -725 1275 -790 
Q 1522 -856 1778 -856 
Q 2344 -856 2625 -561 
Q 2906 -266 2906 331 
L 2906 616 
Q 2728 306 2450 153 
Q 2172 0 1784 0 
Q 1141 0 747 490 
Q 353 981 353 1791 
Q 353 2603 747 3093 
Q 1141 3584 1784 3584 
Q 2172 3584 2450 3431 
Q 2728 3278 2906 2969 
L 2906 3500 
L 3481 3500 
L 3481 434 
z
" id="DejaVuSans-67" transform="scale(0.015625)"/>
     </defs>
     <use xlink:href="#DejaVuSans-45"/>
     <use x="63.183594" xlink:href="#DejaVuSans-76"/>
     <use x="122.363281" xlink:href="#DejaVuSans-65"/>
     <use x="183.886719" xlink:href="#DejaVuSans-72"/>
     <use x="225" xlink:href="#DejaVuSans-79"/>
     <use x="284.179688" xlink:href="#DejaVuSans-62"/>
     <use x="347.65625" xlink:href="#DejaVuSans-6f"/>
     <use x="408.837891" xlink:href="#DejaVuSans-64"/>
     <use x="472.314453" xlink:href="#DejaVuSans-79"/>
     <use x="531.494141" xlink:href="#DejaVuSans-20"/>
     <use x="563.28125" xlink:href="#DejaVuSans-48"/>
     <use x="638.476562" xlink:href="#DejaVuSans-61"/>
     <use x="699.755859" xlink:href="#DejaVuSans-76"/>
     <use x="758.935547" xlink:href="#DejaVuSans-65"/>
     <use x="820.458984" xlink:href="#DejaVuSans-20"/>
     <use x="852.246094" xlink:href="#DejaVuSans-46"/>
     <use x="904.265625" xlink:href="#DejaVuSans-75"/>
     <use x="967.644531" xlink:href="#DejaVuSans-6e"/>
     <use x="1031.023438" xlink:href="#DejaVuSans-20"/>
     <use x="1062.810547" xlink:href="#DejaVuSans-54"/>
     <use x="1106.894531" xlink:href="#DejaVuSans-6f"/>
     <use x="1168.076172" xlink:href="#DejaVuSans-6e"/>
     <use x="1231.455078" xlink:href="#DejaVuSans-69"/>
     <use x="1259.238281" xlink:href="#DejaVuSans-67"/>
     <use x="1322.714844" xlink:href="#DejaVuSans-68"/>
     <use x="1386.09375" xlink:href="#DejaVuSans-74"/>
    </g>
   </g>
  </g>
  <g id="axes_3">
   <g id="patch_92">
    <path d="M 629.226495 299.518125 
L 871.83519 299.518125 
L 871.83519 22.318125 
L 629.226495 22.318125 
z
" style="fill:#ffffff;"/>
   </g>
   <g id="patch_93">
    <path clip-path="url(#pf51e1be58f)" d="M 640.254163 299.518125 
L 644.687396 299.518125 
L 644.687396 299.518125 
L 640.254163 299.518125 
z
" style="fill:#1f77b4;"/>
   </g>
   <g id="patch_94">
    <path clip-path="url(#pf51e1be58f)" d="M 645.795704 299.518125 
L 650.228938 299.518125 
L 650.228938 295.360125 
L 645.795704 295.360125 
z
" style="fill:#1f77b4;"/>
   </g>
   <g id="patch_95">
    <path clip-path="url(#pf51e1be58f)" d="M 651.337246 299.518125 
L 655.770479 299.518125 
L 655.770479 299.518125 
L 651.337246 299.518125 
z
" style="fill:#1f77b4;"/>
   </g>
   <g id="patch_96">
    <path clip-path="url(#pf51e1be58f)" d="M 656.878788 299.518125 
L 661.312021 299.518125 
L 661.312021 299.518125 
L 656.878788 299.518125 
z
" style="fill:#1f77b4;"/>
   </g>
   <g id="patch_97">
    <path clip-path="url(#pf51e1be58f)" d="M 662.420329 299.518125 
L 666.853563 299.518125 
L 666.853563 299.518125 
L 662.420329 299.518125 
z
" style="fill:#1f77b4;"/>
   </g>
   <g id="patch_98">
    <path clip-path="url(#pf51e1be58f)" d="M 667.961871 299.518125 
L 672.395104 299.518125 
L 672.395104 299.518125 
L 667.961871 299.518125 
z
" style="fill:#1f77b4;"/>
   </g>
   <g id="patch_99">
    <path clip-path="url(#pf51e1be58f)" d="M 673.503413 299.518125 
L 677.936646 299.518125 
L 677.936646 299.518125 
L 673.503413 299.518125 
z
" style="fill:#1f77b4;"/>
   </g>
   <g id="patch_100">
    <path clip-path="url(#pf51e1be58f)" d="M 679.044954 299.518125 
L 683.478188 299.518125 
L 683.478188 299.518125 
L 679.044954 299.518125 
z
" style="fill:#1f77b4;"/>
   </g>
   <g id="patch_101">
    <path clip-path="url(#pf51e1be58f)" d="M 684.586496 299.518125 
L 689.01973 299.518125 
L 689.01973 299.518125 
L 684.586496 299.518125 
z
" style="fill:#1f77b4;"/>
   </g>
   <g id="patch_102">
    <path clip-path="url(#pf51e1be58f)" d="M 690.128038 299.518125 
L 694.561271 299.518125 
L 694.561271 298.132125 
L 690.128038 298.132125 
z
" style="fill:#1f77b4;"/>
   </g>
   <g id="patch_103">
    <path clip-path="url(#pf51e1be58f)" d="M 695.66958 299.518125 
L 700.102813 299.518125 
L 700.102813 298.132125 
L 695.66958 298.132125 
z
" style="fill:#1f77b4;"/>
   </g>
   <g id="patch_104">
    <path clip-path="url(#pf51e1be58f)" d="M 701.211121 299.518125 
L 705.644355 299.518125 
L 705.644355 299.518125 
L 701.211121 299.518125 
z
" style="fill:#1f77b4;"/>
   </g>
   <g id="patch_105">
    <path clip-path="url(#pf51e1be58f)" d="M 706.752663 299.518125 
L 711.185896 299.518125 
L 711.185896 299.518125 
L 706.752663 299.518125 
z
" style="fill:#1f77b4;"/>
   </g>
   <g id="patch_106">
    <path clip-path="url(#pf51e1be58f)" d="M 712.294205 299.518125 
L 716.727438 299.518125 
L 716.727438 299.518125 
L 712.294205 299.518125 
z
" style="fill:#1f77b4;"/>
   </g>
   <g id="patch_107">
    <path clip-path="url(#pf51e1be58f)" d="M 717.835746 299.518125 
L 722.26898 299.518125 
L 722.26898 299.518125 
L 717.835746 299.518125 
z
" style="fill:#1f77b4;"/>
   </g>
   <g id="patch_108">
    <path clip-path="url(#pf51e1be58f)" d="M 723.377288 299.518125 
L 727.810521 299.518125 
L 727.810521 298.132125 
L 723.377288 298.132125 
z
" style="fill:#1f77b4;"/>
   </g>
   <g id="patch_109">
    <path clip-path="url(#pf51e1be58f)" d="M 728.91883 299.518125 
L 733.352063 299.518125 
L 733.352063 299.518125 
L 728.91883 299.518125 
z
" style="fill:#1f77b4;"/>
   </g>
   <g id="patch_110">
    <path clip-path="url(#pf51e1be58f)" d="M 734.460371 299.518125 
L 738.893605 299.518125 
L 738.893605 299.518125 
L 734.460371 299.518125 
z
" style="fill:#1f77b4;"/>
   </g>
   <g id="patch_111">
    <path clip-path="url(#pf51e1be58f)" d="M 740.001913 299.518125 
L 744.435147 299.518125 
L 744.435147 292.588125 
L 740.001913 292.588125 
z
" style="fill:#1f77b4;"/>
   </g>
   <g id="patch_112">
    <path clip-path="url(#pf51e1be58f)" d="M 745.543455 299.518125 
L 749.976688 299.518125 
L 749.976688 291.202125 
L 745.543455 291.202125 
z
" style="fill:#1f77b4;"/>
   </g>
   <g id="patch_113">
    <path clip-path="url(#pf51e1be58f)" d="M 751.084997 299.518125 
L 755.51823 299.518125 
L 755.51823 61.126125 
L 751.084997 61.126125 
z
" style="fill:#1f77b4;"/>
   </g>
   <g id="patch_114">
    <path clip-path="url(#pf51e1be58f)" d="M 756.626538 299.518125 
L 761.059772 299.518125 
L 761.059772 282.886125 
L 756.626538 282.886125 
z
" style="fill:#1f77b4;"/>
   </g>
   <g id="patch_115">
    <path clip-path="url(#pf51e1be58f)" d="M 762.16808 299.518125 
L 766.601313 299.518125 
L 766.601313 299.518125 
L 762.16808 299.518125 
z
" style="fill:#1f77b4;"/>
   </g>
   <g id="patch_116">
    <path clip-path="url(#pf51e1be58f)" d="M 767.709622 299.518125 
L 772.142855 299.518125 
L 772.142855 299.518125 
L 767.709622 299.518125 
z
" style="fill:#1f77b4;"/>
   </g>
   <g id="patch_117">
    <path clip-path="url(#pf51e1be58f)" d="M 773.251163 299.518125 
L 777.684397 299.518125 
L 777.684397 299.518125 
L 773.251163 299.518125 
z
" style="fill:#1f77b4;"/>
   </g>
   <g id="patch_118">
    <path clip-path="url(#pf51e1be58f)" d="M 778.792705 299.518125 
L 783.225938 299.518125 
L 783.225938 296.746125 
L 778.792705 296.746125 
z
" style="fill:#1f77b4;"/>
   </g>
   <g id="patch_119">
    <path clip-path="url(#pf51e1be58f)" d="M 784.334247 299.518125 
L 788.76748 299.518125 
L 788.76748 299.518125 
L 784.334247 299.518125 
z
" style="fill:#1f77b4;"/>
   </g>
   <g id="patch_120">
    <path clip-path="url(#pf51e1be58f)" d="M 789.875788 299.518125 
L 794.309022 299.518125 
L 794.309022 299.518125 
L 789.875788 299.518125 
z
" style="fill:#1f77b4;"/>
   </g>
   <g id="patch_121">
    <path clip-path="url(#pf51e1be58f)" d="M 795.41733 299.518125 
L 799.850564 299.518125 
L 799.850564 299.518125 
L 795.41733 299.518125 
z
" style="fill:#1f77b4;"/>
   </g>
   <g id="patch_122">
    <path clip-path="url(#pf51e1be58f)" d="M 800.958872 299.518125 
L 805.392105 299.518125 
L 805.392105 299.518125 
L 800.958872 299.518125 
z
" style="fill:#1f77b4;"/>
   </g>
   <g id="patch_123">
    <path clip-path="url(#pf51e1be58f)" d="M 806.500414 299.518125 
L 810.933647 299.518125 
L 810.933647 299.518125 
L 806.500414 299.518125 
z
" style="fill:#1f77b4;"/>
   </g>
   <g id="patch_124">
    <path clip-path="url(#pf51e1be58f)" d="M 812.041955 299.518125 
L 816.475189 299.518125 
L 816.475189 299.518125 
L 812.041955 299.518125 
z
" style="fill:#1f77b4;"/>
   </g>
   <g id="patch_125">
    <path clip-path="url(#pf51e1be58f)" d="M 817.583497 299.518125 
L 822.01673 299.518125 
L 822.01673 298.132125 
L 817.583497 298.132125 
z
" style="fill:#1f77b4;"/>
   </g>
   <g id="patch_126">
    <path clip-path="url(#pf51e1be58f)" d="M 823.125039 299.518125 
L 827.558272 299.518125 
L 827.558272 299.518125 
L 823.125039 299.518125 
z
" style="fill:#1f77b4;"/>
   </g>
   <g id="patch_127">
    <path clip-path="url(#pf51e1be58f)" d="M 828.66658 299.518125 
L 833.099814 299.518125 
L 833.099814 296.746125 
L 828.66658 296.746125 
z
" style="fill:#1f77b4;"/>
   </g>
   <g id="patch_128">
    <path clip-path="url(#pf51e1be58f)" d="M 834.208122 299.518125 
L 838.641355 299.518125 
L 838.641355 296.746125 
L 834.208122 296.746125 
z
" style="fill:#1f77b4;"/>
   </g>
   <g id="patch_129">
    <path clip-path="url(#pf51e1be58f)" d="M 839.749664 299.518125 
L 844.182897 299.518125 
L 844.182897 299.518125 
L 839.749664 299.518125 
z
" style="fill:#1f77b4;"/>
   </g>
   <g id="patch_130">
    <path clip-path="url(#pf51e1be58f)" d="M 845.291205 299.518125 
L 849.724439 299.518125 
L 849.724439 299.518125 
L 845.291205 299.518125 
z
" style="fill:#1f77b4;"/>
   </g>
   <g id="patch_131">
    <path clip-path="url(#pf51e1be58f)" d="M 850.832747 299.518125 
L 855.265981 299.518125 
L 855.265981 299.518125 
L 850.832747 299.518125 
z
" style="fill:#1f77b4;"/>
   </g>
   <g id="patch_132">
    <path clip-path="url(#pf51e1be58f)" d="M 856.374289 299.518125 
L 860.807522 299.518125 
L 860.807522 299.518125 
L 856.374289 299.518125 
z
" style="fill:#1f77b4;"/>
   </g>
   <g id="matplotlib.axis_5">
    <g id="xtick_10">
     <g id="line2d_28">
      <g>
       <use style="stroke:#000000;stroke-width:0.8;" x="681.261571" xlink:href="#md55ab54a9f" y="299.518125"/>
      </g>
     </g>
     <g id="text_34">
      <!-- 2630 -->
      <g transform="translate(668.536571 314.116563)scale(0.1 -0.1)">
       <use xlink:href="#DejaVuSans-32"/>
       <use x="63.623047" xlink:href="#DejaVuSans-36"/>
       <use x="127.246094" xlink:href="#DejaVuSans-33"/>
       <use x="190.869141" xlink:href="#DejaVuSans-30"/>
      </g>
     </g>
    </g>
    <g id="xtick_11">
     <g id="line2d_29">
      <g>
       <use style="stroke:#000000;stroke-width:0.8;" x="736.676988" xlink:href="#md55ab54a9f" y="299.518125"/>
      </g>
     </g>
     <g id="text_35">
      <!-- 2640 -->
      <g transform="translate(723.951988 314.116563)scale(0.1 -0.1)">
       <use xlink:href="#DejaVuSans-32"/>
       <use x="63.623047" xlink:href="#DejaVuSans-36"/>
       <use x="127.246094" xlink:href="#DejaVuSans-34"/>
       <use x="190.869141" xlink:href="#DejaVuSans-30"/>
      </g>
     </g>
    </g>
    <g id="xtick_12">
     <g id="line2d_30">
      <g>
       <use style="stroke:#000000;stroke-width:0.8;" x="792.092405" xlink:href="#md55ab54a9f" y="299.518125"/>
      </g>
     </g>
     <g id="text_36">
      <!-- 2650 -->
      <g transform="translate(779.367405 314.116563)scale(0.1 -0.1)">
       <use xlink:href="#DejaVuSans-32"/>
       <use x="63.623047" xlink:href="#DejaVuSans-36"/>
       <use x="127.246094" xlink:href="#DejaVuSans-35"/>
       <use x="190.869141" xlink:href="#DejaVuSans-30"/>
      </g>
     </g>
    </g>
    <g id="xtick_13">
     <g id="line2d_31">
      <g>
       <use style="stroke:#000000;stroke-width:0.8;" x="847.507822" xlink:href="#md55ab54a9f" y="299.518125"/>
      </g>
     </g>
     <g id="text_37">
      <!-- 2660 -->
      <g transform="translate(834.782822 314.116563)scale(0.1 -0.1)">
       <use xlink:href="#DejaVuSans-32"/>
       <use x="63.623047" xlink:href="#DejaVuSans-36"/>
       <use x="127.246094" xlink:href="#DejaVuSans-36"/>
       <use x="190.869141" xlink:href="#DejaVuSans-30"/>
      </g>
     </g>
    </g>
    <g id="text_38">
     <!-- Database Window Index Minus Query Index -->
     <g transform="translate(641.64178 327.794688)scale(0.1 -0.1)">
      <use xlink:href="#DejaVuSans-44"/>
      <use x="77.001953" xlink:href="#DejaVuSans-61"/>
      <use x="138.28125" xlink:href="#DejaVuSans-74"/>
      <use x="177.490234" xlink:href="#DejaVuSans-61"/>
      <use x="238.769531" xlink:href="#DejaVuSans-62"/>
      <use x="302.246094" xlink:href="#DejaVuSans-61"/>
      <use x="363.525391" xlink:href="#DejaVuSans-73"/>
      <use x="415.625" xlink:href="#DejaVuSans-65"/>
      <use x="477.148438" xlink:href="#DejaVuSans-20"/>
      <use x="508.935547" xlink:href="#DejaVuSans-57"/>
      <use x="605.5625" xlink:href="#DejaVuSans-69"/>
      <use x="633.345703" xlink:href="#DejaVuSans-6e"/>
      <use x="696.724609" xlink:href="#DejaVuSans-64"/>
      <use x="760.201172" xlink:href="#DejaVuSans-6f"/>
      <use x="821.382812" xlink:href="#DejaVuSans-77"/>
      <use x="903.169922" xlink:href="#DejaVuSans-20"/>
      <use x="934.957031" xlink:href="#DejaVuSans-49"/>
      <use x="964.449219" xlink:href="#DejaVuSans-6e"/>
      <use x="1027.828125" xlink:href="#DejaVuSans-64"/>
      <use x="1091.304688" xlink:href="#DejaVuSans-65"/>
      <use x="1151.078125" xlink:href="#DejaVuSans-78"/>
      <use x="1210.257812" xlink:href="#DejaVuSans-20"/>
      <use x="1242.044922" xlink:href="#DejaVuSans-4d"/>
      <use x="1328.324219" xlink:href="#DejaVuSans-69"/>
      <use x="1356.107422" xlink:href="#DejaVuSans-6e"/>
      <use x="1419.486328" xlink:href="#DejaVuSans-75"/>
      <use x="1482.865234" xlink:href="#DejaVuSans-73"/>
      <use x="1534.964844" xlink:href="#DejaVuSans-20"/>
      <use x="1566.751953" xlink:href="#DejaVuSans-51"/>
      <use x="1645.462891" xlink:href="#DejaVuSans-75"/>
      <use x="1708.841797" xlink:href="#DejaVuSans-65"/>
      <use x="1770.365234" xlink:href="#DejaVuSans-72"/>
      <use x="1811.478516" xlink:href="#DejaVuSans-79"/>
      <use x="1870.658203" xlink:href="#DejaVuSans-20"/>
      <use x="1902.445312" xlink:href="#DejaVuSans-49"/>
      <use x="1931.9375" xlink:href="#DejaVuSans-6e"/>
      <use x="1995.316406" xlink:href="#DejaVuSans-64"/>
      <use x="2058.792969" xlink:href="#DejaVuSans-65"/>
      <use x="2118.566406" xlink:href="#DejaVuSans-78"/>
     </g>
    </g>
   </g>
   <g id="matplotlib.axis_6">
    <g id="ytick_19">
     <g id="line2d_32">
      <g>
       <use style="stroke:#000000;stroke-width:0.8;" x="629.226495" xlink:href="#m073dd9d4b3" y="299.518125"/>
      </g>
     </g>
     <g id="text_39">
      <!-- 0 -->
      <g transform="translate(615.863995 303.317344)scale(0.1 -0.1)">
       <use xlink:href="#DejaVuSans-30"/>
      </g>
     </g>
    </g>
    <g id="ytick_20">
     <g id="line2d_33">
      <g>
       <use style="stroke:#000000;stroke-width:0.8;" x="629.226495" xlink:href="#m073dd9d4b3" y="264.868125"/>
      </g>
     </g>
     <g id="text_40">
      <!-- 25 -->
      <g transform="translate(609.501495 268.667344)scale(0.1 -0.1)">
       <use xlink:href="#DejaVuSans-32"/>
       <use x="63.623047" xlink:href="#DejaVuSans-35"/>
      </g>
     </g>
    </g>
    <g id="ytick_21">
     <g id="line2d_34">
      <g>
       <use style="stroke:#000000;stroke-width:0.8;" x="629.226495" xlink:href="#m073dd9d4b3" y="230.218125"/>
      </g>
     </g>
     <g id="text_41">
      <!-- 50 -->
      <g transform="translate(609.501495 234.017344)scale(0.1 -0.1)">
       <use xlink:href="#DejaVuSans-35"/>
       <use x="63.623047" xlink:href="#DejaVuSans-30"/>
      </g>
     </g>
    </g>
    <g id="ytick_22">
     <g id="line2d_35">
      <g>
       <use style="stroke:#000000;stroke-width:0.8;" x="629.226495" xlink:href="#m073dd9d4b3" y="195.568125"/>
      </g>
     </g>
     <g id="text_42">
      <!-- 75 -->
      <g transform="translate(609.501495 199.367344)scale(0.1 -0.1)">
       <use xlink:href="#DejaVuSans-37"/>
       <use x="63.623047" xlink:href="#DejaVuSans-35"/>
      </g>
     </g>
    </g>
    <g id="ytick_23">
     <g id="line2d_36">
      <g>
       <use style="stroke:#000000;stroke-width:0.8;" x="629.226495" xlink:href="#m073dd9d4b3" y="160.918125"/>
      </g>
     </g>
     <g id="text_43">
      <!-- 100 -->
      <g transform="translate(603.138995 164.717344)scale(0.1 -0.1)">
       <use xlink:href="#DejaVuSans-31"/>
       <use x="63.623047" xlink:href="#DejaVuSans-30"/>
       <use x="127.246094" xlink:href="#DejaVuSans-30"/>
      </g>
     </g>
    </g>
    <g id="ytick_24">
     <g id="line2d_37">
      <g>
       <use style="stroke:#000000;stroke-width:0.8;" x="629.226495" xlink:href="#m073dd9d4b3" y="126.268125"/>
      </g>
     </g>
     <g id="text_44">
      <!-- 125 -->
      <g transform="translate(603.138995 130.067344)scale(0.1 -0.1)">
       <use xlink:href="#DejaVuSans-31"/>
       <use x="63.623047" xlink:href="#DejaVuSans-32"/>
       <use x="127.246094" xlink:href="#DejaVuSans-35"/>
      </g>
     </g>
    </g>
    <g id="ytick_25">
     <g id="line2d_38">
      <g>
       <use style="stroke:#000000;stroke-width:0.8;" x="629.226495" xlink:href="#m073dd9d4b3" y="91.618125"/>
      </g>
     </g>
     <g id="text_45">
      <!-- 150 -->
      <g transform="translate(603.138995 95.417344)scale(0.1 -0.1)">
       <use xlink:href="#DejaVuSans-31"/>
       <use x="63.623047" xlink:href="#DejaVuSans-35"/>
       <use x="127.246094" xlink:href="#DejaVuSans-30"/>
      </g>
     </g>
    </g>
    <g id="ytick_26">
     <g id="line2d_39">
      <g>
       <use style="stroke:#000000;stroke-width:0.8;" x="629.226495" xlink:href="#m073dd9d4b3" y="56.968125"/>
      </g>
     </g>
     <g id="text_46">
      <!-- 175 -->
      <g transform="translate(603.138995 60.767344)scale(0.1 -0.1)">
       <use xlink:href="#DejaVuSans-31"/>
       <use x="63.623047" xlink:href="#DejaVuSans-37"/>
       <use x="127.246094" xlink:href="#DejaVuSans-35"/>
      </g>
     </g>
    </g>
    <g id="ytick_27">
     <g id="line2d_40">
      <g>
       <use style="stroke:#000000;stroke-width:0.8;" x="629.226495" xlink:href="#m073dd9d4b3" y="22.318125"/>
      </g>
     </g>
     <g id="text_47">
      <!-- 200 -->
      <g transform="translate(603.138995 26.117344)scale(0.1 -0.1)">
       <use xlink:href="#DejaVuSans-32"/>
       <use x="63.623047" xlink:href="#DejaVuSans-30"/>
       <use x="127.246094" xlink:href="#DejaVuSans-30"/>
      </g>
     </g>
    </g>
    <g id="text_48">
     <!-- Counts -->
     <g transform="translate(597.059307 178.37125)rotate(-90)scale(0.1 -0.1)">
      <use xlink:href="#DejaVuSans-43"/>
      <use x="69.824219" xlink:href="#DejaVuSans-6f"/>
      <use x="131.005859" xlink:href="#DejaVuSans-75"/>
      <use x="194.384766" xlink:href="#DejaVuSans-6e"/>
      <use x="257.763672" xlink:href="#DejaVuSans-74"/>
      <use x="296.972656" xlink:href="#DejaVuSans-73"/>
     </g>
    </g>
   </g>
   <g id="patch_133">
    <path d="M 629.226495 299.518125 
L 629.226495 22.318125 
" style="fill:none;stroke:#000000;stroke-linecap:square;stroke-linejoin:miter;stroke-width:0.8;"/>
   </g>
   <g id="patch_134">
    <path d="M 871.83519 299.518125 
L 871.83519 22.318125 
" style="fill:none;stroke:#000000;stroke-linecap:square;stroke-linejoin:miter;stroke-width:0.8;"/>
   </g>
   <g id="patch_135">
    <path d="M 629.226495 299.518125 
L 871.83519 299.518125 
" style="fill:none;stroke:#000000;stroke-linecap:square;stroke-linejoin:miter;stroke-width:0.8;"/>
   </g>
   <g id="patch_136">
    <path d="M 629.226495 22.318125 
L 871.83519 22.318125 
" style="fill:none;stroke:#000000;stroke-linecap:square;stroke-linejoin:miter;stroke-width:0.8;"/>
   </g>
   <g id="text_49">
    <!-- Bad Day -->
    <g transform="translate(725.173342 16.318125)scale(0.12 -0.12)">
     <defs>
      <path d="M 1259 2228 
L 1259 519 
L 2272 519 
Q 2781 519 3026 730 
Q 3272 941 3272 1375 
Q 3272 1813 3026 2020 
Q 2781 2228 2272 2228 
L 1259 2228 
z
M 1259 4147 
L 1259 2741 
L 2194 2741 
Q 2656 2741 2882 2914 
Q 3109 3088 3109 3444 
Q 3109 3797 2882 3972 
Q 2656 4147 2194 4147 
L 1259 4147 
z
M 628 4666 
L 2241 4666 
Q 2963 4666 3353 4366 
Q 3744 4066 3744 3513 
Q 3744 3084 3544 2831 
Q 3344 2578 2956 2516 
Q 3422 2416 3680 2098 
Q 3938 1781 3938 1306 
Q 3938 681 3513 340 
Q 3088 0 2303 0 
L 628 0 
L 628 4666 
z
" id="DejaVuSans-42" transform="scale(0.015625)"/>
     </defs>
     <use xlink:href="#DejaVuSans-42"/>
     <use x="68.603516" xlink:href="#DejaVuSans-61"/>
     <use x="129.882812" xlink:href="#DejaVuSans-64"/>
     <use x="193.359375" xlink:href="#DejaVuSans-20"/>
     <use x="225.146484" xlink:href="#DejaVuSans-44"/>
     <use x="302.148438" xlink:href="#DejaVuSans-61"/>
     <use x="363.427734" xlink:href="#DejaVuSans-79"/>
    </g>
   </g>
  </g>
  <g id="axes_4">
   <g id="patch_137">
    <path d="M 920.356929 299.518125 
L 1162.965625 299.518125 
L 1162.965625 22.318125 
L 920.356929 22.318125 
z
" style="fill:#ffffff;"/>
   </g>
   <g id="patch_138">
    <path clip-path="url(#p7a8ba14636)" d="M 931.384597 299.518125 
L 935.817831 299.518125 
L 935.817831 299.518125 
L 931.384597 299.518125 
z
" style="fill:#1f77b4;"/>
   </g>
   <g id="patch_139">
    <path clip-path="url(#p7a8ba14636)" d="M 936.926139 299.518125 
L 941.359372 299.518125 
L 941.359372 299.518125 
L 936.926139 299.518125 
z
" style="fill:#1f77b4;"/>
   </g>
   <g id="patch_140">
    <path clip-path="url(#p7a8ba14636)" d="M 942.467681 299.518125 
L 946.900914 299.518125 
L 946.900914 299.518125 
L 942.467681 299.518125 
z
" style="fill:#1f77b4;"/>
   </g>
   <g id="patch_141">
    <path clip-path="url(#p7a8ba14636)" d="M 948.009222 299.518125 
L 952.442456 299.518125 
L 952.442456 299.518125 
L 948.009222 299.518125 
z
" style="fill:#1f77b4;"/>
   </g>
   <g id="patch_142">
    <path clip-path="url(#p7a8ba14636)" d="M 953.550764 299.518125 
L 957.983997 299.518125 
L 957.983997 299.518125 
L 953.550764 299.518125 
z
" style="fill:#1f77b4;"/>
   </g>
   <g id="patch_143">
    <path clip-path="url(#p7a8ba14636)" d="M 959.092306 299.518125 
L 963.525539 299.518125 
L 963.525539 299.518125 
L 959.092306 299.518125 
z
" style="fill:#1f77b4;"/>
   </g>
   <g id="patch_144">
    <path clip-path="url(#p7a8ba14636)" d="M 964.633848 299.518125 
L 969.067081 299.518125 
L 969.067081 299.518125 
L 964.633848 299.518125 
z
" style="fill:#1f77b4;"/>
   </g>
   <g id="patch_145">
    <path clip-path="url(#p7a8ba14636)" d="M 970.175389 299.518125 
L 974.608623 299.518125 
L 974.608623 299.518125 
L 970.175389 299.518125 
z
" style="fill:#1f77b4;"/>
   </g>
   <g id="patch_146">
    <path clip-path="url(#p7a8ba14636)" d="M 975.716931 299.518125 
L 980.150164 299.518125 
L 980.150164 299.518125 
L 975.716931 299.518125 
z
" style="fill:#1f77b4;"/>
   </g>
   <g id="patch_147">
    <path clip-path="url(#p7a8ba14636)" d="M 981.258473 299.518125 
L 985.691706 299.518125 
L 985.691706 299.518125 
L 981.258473 299.518125 
z
" style="fill:#1f77b4;"/>
   </g>
   <g id="patch_148">
    <path clip-path="url(#p7a8ba14636)" d="M 986.800014 299.518125 
L 991.233248 299.518125 
L 991.233248 299.518125 
L 986.800014 299.518125 
z
" style="fill:#1f77b4;"/>
   </g>
   <g id="patch_149">
    <path clip-path="url(#p7a8ba14636)" d="M 992.341556 299.518125 
L 996.774789 299.518125 
L 996.774789 299.518125 
L 992.341556 299.518125 
z
" style="fill:#1f77b4;"/>
   </g>
   <g id="patch_150">
    <path clip-path="url(#p7a8ba14636)" d="M 997.883098 299.518125 
L 1002.316331 299.518125 
L 1002.316331 299.518125 
L 997.883098 299.518125 
z
" style="fill:#1f77b4;"/>
   </g>
   <g id="patch_151">
    <path clip-path="url(#p7a8ba14636)" d="M 1003.424639 299.518125 
L 1007.857873 299.518125 
L 1007.857873 299.518125 
L 1003.424639 299.518125 
z
" style="fill:#1f77b4;"/>
   </g>
   <g id="patch_152">
    <path clip-path="url(#p7a8ba14636)" d="M 1008.966181 299.518125 
L 1013.399415 299.518125 
L 1013.399415 299.518125 
L 1008.966181 299.518125 
z
" style="fill:#1f77b4;"/>
   </g>
   <g id="patch_153">
    <path clip-path="url(#p7a8ba14636)" d="M 1014.507723 299.518125 
L 1018.940956 299.518125 
L 1018.940956 299.518125 
L 1014.507723 299.518125 
z
" style="fill:#1f77b4;"/>
   </g>
   <g id="patch_154">
    <path clip-path="url(#p7a8ba14636)" d="M 1020.049265 299.518125 
L 1024.482498 299.518125 
L 1024.482498 298.132125 
L 1020.049265 298.132125 
z
" style="fill:#1f77b4;"/>
   </g>
   <g id="patch_155">
    <path clip-path="url(#p7a8ba14636)" d="M 1025.590806 299.518125 
L 1030.02404 299.518125 
L 1030.02404 299.518125 
L 1025.590806 299.518125 
z
" style="fill:#1f77b4;"/>
   </g>
   <g id="patch_156">
    <path clip-path="url(#p7a8ba14636)" d="M 1031.132348 299.518125 
L 1035.565581 299.518125 
L 1035.565581 299.518125 
L 1031.132348 299.518125 
z
" style="fill:#1f77b4;"/>
   </g>
   <g id="patch_157">
    <path clip-path="url(#p7a8ba14636)" d="M 1036.67389 299.518125 
L 1041.107123 299.518125 
L 1041.107123 299.518125 
L 1036.67389 299.518125 
z
" style="fill:#1f77b4;"/>
   </g>
   <g id="patch_158">
    <path clip-path="url(#p7a8ba14636)" d="M 1042.215431 299.518125 
L 1046.648665 299.518125 
L 1046.648665 295.360125 
L 1042.215431 295.360125 
z
" style="fill:#1f77b4;"/>
   </g>
   <g id="patch_159">
    <path clip-path="url(#p7a8ba14636)" d="M 1047.756973 299.518125 
L 1052.190206 299.518125 
L 1052.190206 299.518125 
L 1047.756973 299.518125 
z
" style="fill:#1f77b4;"/>
   </g>
   <g id="patch_160">
    <path clip-path="url(#p7a8ba14636)" d="M 1053.298515 299.518125 
L 1057.731748 299.518125 
L 1057.731748 299.518125 
L 1053.298515 299.518125 
z
" style="fill:#1f77b4;"/>
   </g>
   <g id="patch_161">
    <path clip-path="url(#p7a8ba14636)" d="M 1058.840056 299.518125 
L 1063.27329 299.518125 
L 1063.27329 299.518125 
L 1058.840056 299.518125 
z
" style="fill:#1f77b4;"/>
   </g>
   <g id="patch_162">
    <path clip-path="url(#p7a8ba14636)" d="M 1064.381598 299.518125 
L 1068.814832 299.518125 
L 1068.814832 299.518125 
L 1064.381598 299.518125 
z
" style="fill:#1f77b4;"/>
   </g>
   <g id="patch_163">
    <path clip-path="url(#p7a8ba14636)" d="M 1069.92314 299.518125 
L 1074.356373 299.518125 
L 1074.356373 299.518125 
L 1069.92314 299.518125 
z
" style="fill:#1f77b4;"/>
   </g>
   <g id="patch_164">
    <path clip-path="url(#p7a8ba14636)" d="M 1075.464682 299.518125 
L 1079.897915 299.518125 
L 1079.897915 299.518125 
L 1075.464682 299.518125 
z
" style="fill:#1f77b4;"/>
   </g>
   <g id="patch_165">
    <path clip-path="url(#p7a8ba14636)" d="M 1081.006223 299.518125 
L 1085.439457 299.518125 
L 1085.439457 299.518125 
L 1081.006223 299.518125 
z
" style="fill:#1f77b4;"/>
   </g>
   <g id="patch_166">
    <path clip-path="url(#p7a8ba14636)" d="M 1086.547765 299.518125 
L 1090.980998 299.518125 
L 1090.980998 299.518125 
L 1086.547765 299.518125 
z
" style="fill:#1f77b4;"/>
   </g>
   <g id="patch_167">
    <path clip-path="url(#p7a8ba14636)" d="M 1092.089307 299.518125 
L 1096.52254 299.518125 
L 1096.52254 299.518125 
L 1092.089307 299.518125 
z
" style="fill:#1f77b4;"/>
   </g>
   <g id="patch_168">
    <path clip-path="url(#p7a8ba14636)" d="M 1097.630848 299.518125 
L 1102.064082 299.518125 
L 1102.064082 299.518125 
L 1097.630848 299.518125 
z
" style="fill:#1f77b4;"/>
   </g>
   <g id="patch_169">
    <path clip-path="url(#p7a8ba14636)" d="M 1103.17239 299.518125 
L 1107.605623 299.518125 
L 1107.605623 299.518125 
L 1103.17239 299.518125 
z
" style="fill:#1f77b4;"/>
   </g>
   <g id="patch_170">
    <path clip-path="url(#p7a8ba14636)" d="M 1108.713932 299.518125 
L 1113.147165 299.518125 
L 1113.147165 299.518125 
L 1108.713932 299.518125 
z
" style="fill:#1f77b4;"/>
   </g>
   <g id="patch_171">
    <path clip-path="url(#p7a8ba14636)" d="M 1114.255473 299.518125 
L 1118.688707 299.518125 
L 1118.688707 299.518125 
L 1114.255473 299.518125 
z
" style="fill:#1f77b4;"/>
   </g>
   <g id="patch_172">
    <path clip-path="url(#p7a8ba14636)" d="M 1119.797015 299.518125 
L 1124.230249 299.518125 
L 1124.230249 299.518125 
L 1119.797015 299.518125 
z
" style="fill:#1f77b4;"/>
   </g>
   <g id="patch_173">
    <path clip-path="url(#p7a8ba14636)" d="M 1125.338557 299.518125 
L 1129.77179 299.518125 
L 1129.77179 299.518125 
L 1125.338557 299.518125 
z
" style="fill:#1f77b4;"/>
   </g>
   <g id="patch_174">
    <path clip-path="url(#p7a8ba14636)" d="M 1130.880099 299.518125 
L 1135.313332 299.518125 
L 1135.313332 299.518125 
L 1130.880099 299.518125 
z
" style="fill:#1f77b4;"/>
   </g>
   <g id="patch_175">
    <path clip-path="url(#p7a8ba14636)" d="M 1136.42164 299.518125 
L 1140.854874 299.518125 
L 1140.854874 299.518125 
L 1136.42164 299.518125 
z
" style="fill:#1f77b4;"/>
   </g>
   <g id="patch_176">
    <path clip-path="url(#p7a8ba14636)" d="M 1141.963182 299.518125 
L 1146.396415 299.518125 
L 1146.396415 299.518125 
L 1141.963182 299.518125 
z
" style="fill:#1f77b4;"/>
   </g>
   <g id="patch_177">
    <path clip-path="url(#p7a8ba14636)" d="M 1147.504724 299.518125 
L 1151.937957 299.518125 
L 1151.937957 299.518125 
L 1147.504724 299.518125 
z
" style="fill:#1f77b4;"/>
   </g>
   <g id="matplotlib.axis_7">
    <g id="xtick_14">
     <g id="line2d_41">
      <g>
       <use style="stroke:#000000;stroke-width:0.8;" x="972.392006" xlink:href="#md55ab54a9f" y="299.518125"/>
      </g>
     </g>
     <g id="text_50">
      <!-- 450 -->
      <g transform="translate(962.848256 314.116563)scale(0.1 -0.1)">
       <use xlink:href="#DejaVuSans-34"/>
       <use x="63.623047" xlink:href="#DejaVuSans-35"/>
       <use x="127.246094" xlink:href="#DejaVuSans-30"/>
      </g>
     </g>
    </g>
    <g id="xtick_15">
     <g id="line2d_42">
      <g>
       <use style="stroke:#000000;stroke-width:0.8;" x="1027.807423" xlink:href="#md55ab54a9f" y="299.518125"/>
      </g>
     </g>
     <g id="text_51">
      <!-- 460 -->
      <g transform="translate(1018.263673 314.116563)scale(0.1 -0.1)">
       <use xlink:href="#DejaVuSans-34"/>
       <use x="63.623047" xlink:href="#DejaVuSans-36"/>
       <use x="127.246094" xlink:href="#DejaVuSans-30"/>
      </g>
     </g>
    </g>
    <g id="xtick_16">
     <g id="line2d_43">
      <g>
       <use style="stroke:#000000;stroke-width:0.8;" x="1083.22284" xlink:href="#md55ab54a9f" y="299.518125"/>
      </g>
     </g>
     <g id="text_52">
      <!-- 470 -->
      <g transform="translate(1073.67909 314.116563)scale(0.1 -0.1)">
       <use xlink:href="#DejaVuSans-34"/>
       <use x="63.623047" xlink:href="#DejaVuSans-37"/>
       <use x="127.246094" xlink:href="#DejaVuSans-30"/>
      </g>
     </g>
    </g>
    <g id="xtick_17">
     <g id="line2d_44">
      <g>
       <use style="stroke:#000000;stroke-width:0.8;" x="1138.638257" xlink:href="#md55ab54a9f" y="299.518125"/>
      </g>
     </g>
     <g id="text_53">
      <!-- 480 -->
      <g transform="translate(1129.094507 314.116563)scale(0.1 -0.1)">
       <use xlink:href="#DejaVuSans-34"/>
       <use x="63.623047" xlink:href="#DejaVuSans-38"/>
       <use x="127.246094" xlink:href="#DejaVuSans-30"/>
      </g>
     </g>
    </g>
    <g id="text_54">
     <!-- Database Window Index Minus Query Index -->
     <g transform="translate(932.772215 327.794688)scale(0.1 -0.1)">
      <use xlink:href="#DejaVuSans-44"/>
      <use x="77.001953" xlink:href="#DejaVuSans-61"/>
      <use x="138.28125" xlink:href="#DejaVuSans-74"/>
      <use x="177.490234" xlink:href="#DejaVuSans-61"/>
      <use x="238.769531" xlink:href="#DejaVuSans-62"/>
      <use x="302.246094" xlink:href="#DejaVuSans-61"/>
      <use x="363.525391" xlink:href="#DejaVuSans-73"/>
      <use x="415.625" xlink:href="#DejaVuSans-65"/>
      <use x="477.148438" xlink:href="#DejaVuSans-20"/>
      <use x="508.935547" xlink:href="#DejaVuSans-57"/>
      <use x="605.5625" xlink:href="#DejaVuSans-69"/>
      <use x="633.345703" xlink:href="#DejaVuSans-6e"/>
      <use x="696.724609" xlink:href="#DejaVuSans-64"/>
      <use x="760.201172" xlink:href="#DejaVuSans-6f"/>
      <use x="821.382812" xlink:href="#DejaVuSans-77"/>
      <use x="903.169922" xlink:href="#DejaVuSans-20"/>
      <use x="934.957031" xlink:href="#DejaVuSans-49"/>
      <use x="964.449219" xlink:href="#DejaVuSans-6e"/>
      <use x="1027.828125" xlink:href="#DejaVuSans-64"/>
      <use x="1091.304688" xlink:href="#DejaVuSans-65"/>
      <use x="1151.078125" xlink:href="#DejaVuSans-78"/>
      <use x="1210.257812" xlink:href="#DejaVuSans-20"/>
      <use x="1242.044922" xlink:href="#DejaVuSans-4d"/>
      <use x="1328.324219" xlink:href="#DejaVuSans-69"/>
      <use x="1356.107422" xlink:href="#DejaVuSans-6e"/>
      <use x="1419.486328" xlink:href="#DejaVuSans-75"/>
      <use x="1482.865234" xlink:href="#DejaVuSans-73"/>
      <use x="1534.964844" xlink:href="#DejaVuSans-20"/>
      <use x="1566.751953" xlink:href="#DejaVuSans-51"/>
      <use x="1645.462891" xlink:href="#DejaVuSans-75"/>
      <use x="1708.841797" xlink:href="#DejaVuSans-65"/>
      <use x="1770.365234" xlink:href="#DejaVuSans-72"/>
      <use x="1811.478516" xlink:href="#DejaVuSans-79"/>
      <use x="1870.658203" xlink:href="#DejaVuSans-20"/>
      <use x="1902.445312" xlink:href="#DejaVuSans-49"/>
      <use x="1931.9375" xlink:href="#DejaVuSans-6e"/>
      <use x="1995.316406" xlink:href="#DejaVuSans-64"/>
      <use x="2058.792969" xlink:href="#DejaVuSans-65"/>
      <use x="2118.566406" xlink:href="#DejaVuSans-78"/>
     </g>
    </g>
   </g>
   <g id="matplotlib.axis_8">
    <g id="ytick_28">
     <g id="line2d_45">
      <g>
       <use style="stroke:#000000;stroke-width:0.8;" x="920.356929" xlink:href="#m073dd9d4b3" y="299.518125"/>
      </g>
     </g>
     <g id="text_55">
      <!-- 0 -->
      <g transform="translate(906.994429 303.317344)scale(0.1 -0.1)">
       <use xlink:href="#DejaVuSans-30"/>
      </g>
     </g>
    </g>
    <g id="ytick_29">
     <g id="line2d_46">
      <g>
       <use style="stroke:#000000;stroke-width:0.8;" x="920.356929" xlink:href="#m073dd9d4b3" y="264.868125"/>
      </g>
     </g>
     <g id="text_56">
      <!-- 25 -->
      <g transform="translate(900.631929 268.667344)scale(0.1 -0.1)">
       <use xlink:href="#DejaVuSans-32"/>
       <use x="63.623047" xlink:href="#DejaVuSans-35"/>
      </g>
     </g>
    </g>
    <g id="ytick_30">
     <g id="line2d_47">
      <g>
       <use style="stroke:#000000;stroke-width:0.8;" x="920.356929" xlink:href="#m073dd9d4b3" y="230.218125"/>
      </g>
     </g>
     <g id="text_57">
      <!-- 50 -->
      <g transform="translate(900.631929 234.017344)scale(0.1 -0.1)">
       <use xlink:href="#DejaVuSans-35"/>
       <use x="63.623047" xlink:href="#DejaVuSans-30"/>
      </g>
     </g>
    </g>
    <g id="ytick_31">
     <g id="line2d_48">
      <g>
       <use style="stroke:#000000;stroke-width:0.8;" x="920.356929" xlink:href="#m073dd9d4b3" y="195.568125"/>
      </g>
     </g>
     <g id="text_58">
      <!-- 75 -->
      <g transform="translate(900.631929 199.367344)scale(0.1 -0.1)">
       <use xlink:href="#DejaVuSans-37"/>
       <use x="63.623047" xlink:href="#DejaVuSans-35"/>
      </g>
     </g>
    </g>
    <g id="ytick_32">
     <g id="line2d_49">
      <g>
       <use style="stroke:#000000;stroke-width:0.8;" x="920.356929" xlink:href="#m073dd9d4b3" y="160.918125"/>
      </g>
     </g>
     <g id="text_59">
      <!-- 100 -->
      <g transform="translate(894.269429 164.717344)scale(0.1 -0.1)">
       <use xlink:href="#DejaVuSans-31"/>
       <use x="63.623047" xlink:href="#DejaVuSans-30"/>
       <use x="127.246094" xlink:href="#DejaVuSans-30"/>
      </g>
     </g>
    </g>
    <g id="ytick_33">
     <g id="line2d_50">
      <g>
       <use style="stroke:#000000;stroke-width:0.8;" x="920.356929" xlink:href="#m073dd9d4b3" y="126.268125"/>
      </g>
     </g>
     <g id="text_60">
      <!-- 125 -->
      <g transform="translate(894.269429 130.067344)scale(0.1 -0.1)">
       <use xlink:href="#DejaVuSans-31"/>
       <use x="63.623047" xlink:href="#DejaVuSans-32"/>
       <use x="127.246094" xlink:href="#DejaVuSans-35"/>
      </g>
     </g>
    </g>
    <g id="ytick_34">
     <g id="line2d_51">
      <g>
       <use style="stroke:#000000;stroke-width:0.8;" x="920.356929" xlink:href="#m073dd9d4b3" y="91.618125"/>
      </g>
     </g>
     <g id="text_61">
      <!-- 150 -->
      <g transform="translate(894.269429 95.417344)scale(0.1 -0.1)">
       <use xlink:href="#DejaVuSans-31"/>
       <use x="63.623047" xlink:href="#DejaVuSans-35"/>
       <use x="127.246094" xlink:href="#DejaVuSans-30"/>
      </g>
     </g>
    </g>
    <g id="ytick_35">
     <g id="line2d_52">
      <g>
       <use style="stroke:#000000;stroke-width:0.8;" x="920.356929" xlink:href="#m073dd9d4b3" y="56.968125"/>
      </g>
     </g>
     <g id="text_62">
      <!-- 175 -->
      <g transform="translate(894.269429 60.767344)scale(0.1 -0.1)">
       <use xlink:href="#DejaVuSans-31"/>
       <use x="63.623047" xlink:href="#DejaVuSans-37"/>
       <use x="127.246094" xlink:href="#DejaVuSans-35"/>
      </g>
     </g>
    </g>
    <g id="ytick_36">
     <g id="line2d_53">
      <g>
       <use style="stroke:#000000;stroke-width:0.8;" x="920.356929" xlink:href="#m073dd9d4b3" y="22.318125"/>
      </g>
     </g>
     <g id="text_63">
      <!-- 200 -->
      <g transform="translate(894.269429 26.117344)scale(0.1 -0.1)">
       <use xlink:href="#DejaVuSans-32"/>
       <use x="63.623047" xlink:href="#DejaVuSans-30"/>
       <use x="127.246094" xlink:href="#DejaVuSans-30"/>
      </g>
     </g>
    </g>
    <g id="text_64">
     <!-- Counts -->
     <g transform="translate(888.189742 178.37125)rotate(-90)scale(0.1 -0.1)">
      <use xlink:href="#DejaVuSans-43"/>
      <use x="69.824219" xlink:href="#DejaVuSans-6f"/>
      <use x="131.005859" xlink:href="#DejaVuSans-75"/>
      <use x="194.384766" xlink:href="#DejaVuSans-6e"/>
      <use x="257.763672" xlink:href="#DejaVuSans-74"/>
      <use x="296.972656" xlink:href="#DejaVuSans-73"/>
     </g>
    </g>
   </g>
   <g id="patch_178">
    <path d="M 920.356929 299.518125 
L 920.356929 22.318125 
" style="fill:none;stroke:#000000;stroke-linecap:square;stroke-linejoin:miter;stroke-width:0.8;"/>
   </g>
   <g id="patch_179">
    <path d="M 1162.965625 299.518125 
L 1162.965625 22.318125 
" style="fill:none;stroke:#000000;stroke-linecap:square;stroke-linejoin:miter;stroke-width:0.8;"/>
   </g>
   <g id="patch_180">
    <path d="M 920.356929 299.518125 
L 1162.965625 299.518125 
" style="fill:none;stroke:#000000;stroke-linecap:square;stroke-linejoin:miter;stroke-width:0.8;"/>
   </g>
   <g id="patch_181">
    <path d="M 920.356929 22.318125 
L 1162.965625 22.318125 
" style="fill:none;stroke:#000000;stroke-linecap:square;stroke-linejoin:miter;stroke-width:0.8;"/>
   </g>
   <g id="text_65">
    <!-- Despacito -->
    <g transform="translate(1011.748465 16.318125)scale(0.12 -0.12)">
     <defs>
      <path d="M 1159 525 
L 1159 -1331 
L 581 -1331 
L 581 3500 
L 1159 3500 
L 1159 2969 
Q 1341 3281 1617 3432 
Q 1894 3584 2278 3584 
Q 2916 3584 3314 3078 
Q 3713 2572 3713 1747 
Q 3713 922 3314 415 
Q 2916 -91 2278 -91 
Q 1894 -91 1617 61 
Q 1341 213 1159 525 
z
M 3116 1747 
Q 3116 2381 2855 2742 
Q 2594 3103 2138 3103 
Q 1681 3103 1420 2742 
Q 1159 2381 1159 1747 
Q 1159 1113 1420 752 
Q 1681 391 2138 391 
Q 2594 391 2855 752 
Q 3116 1113 3116 1747 
z
" id="DejaVuSans-70" transform="scale(0.015625)"/>
     </defs>
     <use xlink:href="#DejaVuSans-44"/>
     <use x="77.001953" xlink:href="#DejaVuSans-65"/>
     <use x="138.525391" xlink:href="#DejaVuSans-73"/>
     <use x="190.625" xlink:href="#DejaVuSans-70"/>
     <use x="254.101562" xlink:href="#DejaVuSans-61"/>
     <use x="315.380859" xlink:href="#DejaVuSans-63"/>
     <use x="370.361328" xlink:href="#DejaVuSans-69"/>
     <use x="398.144531" xlink:href="#DejaVuSans-74"/>
     <use x="437.353516" xlink:href="#DejaVuSans-6f"/>
    </g>
   </g>
  </g>
 </g>
 <defs>
  <clipPath id="pfa5a13f478">
   <rect height="277.2" width="242.608696" x="46.965625" y="22.318125"/>
  </clipPath>
  <clipPath id="p1cdb2ffd32">
   <rect height="277.2" width="242.608696" x="338.09606" y="22.318125"/>
  </clipPath>
  <clipPath id="pf51e1be58f">
   <rect height="277.2" width="242.608696" x="629.226495" y="22.318125"/>
  </clipPath>
  <clipPath id="p7a8ba14636">
   <rect height="277.2" width="242.608696" x="920.356929" y="22.318125"/>
  </clipPath>
 </defs>
</svg>
